<svg width="2543" height="2377" viewBox="0 0 2543 2377" fill="none" xmlns="http://www.w3.org/2000/svg">
<rect x="0.723633" width="2542" height="2377" fill="black"/>
<path d="M640.009 1803.98V1790.29H698.319C701.651 1790.29 703.317 1788.43 703.317 1784.7C703.317 1781.05 701.651 1779.23 698.319 1779.23H660.596C653.536 1779.23 648.181 1777.64 644.531 1774.47C640.882 1771.21 639.057 1766.57 639.057 1760.54C639.057 1754.43 640.882 1749.75 644.531 1746.5C648.26 1743.17 653.615 1741.5 660.596 1741.5H714.86V1755.19H661.429C658.018 1755.19 656.312 1756.85 656.312 1760.19C656.312 1761.85 656.788 1763.16 657.74 1764.11C658.692 1765.06 659.922 1765.54 661.429 1765.54H701.413C707.601 1765.54 712.322 1767.17 715.574 1770.42C718.906 1773.59 720.572 1778.23 720.572 1784.34C720.572 1790.53 718.906 1795.37 715.574 1798.86C712.242 1802.27 707.522 1803.98 701.413 1803.98H640.009ZM730.701 1830.16V1742.1H774.731C785.362 1742.1 793.652 1744.72 799.602 1749.95C805.552 1755.19 808.527 1762.76 808.527 1772.68C808.527 1782.68 805.552 1790.29 799.602 1795.53C793.652 1800.76 785.362 1803.38 774.731 1803.38H747.956V1830.16H730.701ZM774.731 1755.78H747.956V1789.7H774.731C779.888 1789.7 783.815 1788.31 786.512 1785.53C789.289 1782.68 790.677 1778.39 790.677 1772.68C790.677 1767.05 789.289 1762.84 786.512 1760.07C783.815 1757.21 779.888 1755.78 774.731 1755.78ZM850.67 1803.98C840.039 1803.98 831.749 1801.36 825.799 1796.12C819.849 1790.81 816.874 1783.03 816.874 1772.8C816.874 1762.49 819.849 1754.71 825.799 1749.48C831.749 1744.16 840.039 1741.5 850.67 1741.5H872.685C883.316 1741.5 891.606 1744.16 897.556 1749.48C903.506 1754.71 906.481 1762.49 906.481 1772.8C906.481 1783.03 903.506 1790.81 897.556 1796.12C891.606 1801.36 883.316 1803.98 872.685 1803.98H850.67ZM850.67 1790.29H872.685C877.842 1790.29 881.769 1788.86 884.466 1786.01C887.243 1783.15 888.631 1778.75 888.631 1772.8C888.631 1766.77 887.243 1762.33 884.466 1759.47C881.769 1756.62 877.842 1755.19 872.685 1755.19H850.67C845.513 1755.19 841.547 1756.62 838.77 1759.47C836.073 1762.33 834.724 1766.77 834.724 1772.8C834.724 1778.75 836.073 1783.15 838.77 1786.01C841.547 1788.86 845.513 1790.29 850.67 1790.29ZM917.22 1803.38V1742.1H964.106C971.008 1742.1 976.085 1743.84 979.338 1747.33C982.59 1750.75 984.217 1755.27 984.217 1760.9V1773.63H966.724V1763.04C966.724 1758.28 964.344 1755.9 959.584 1755.9H934.713V1803.38H917.22ZM1025.58 1803.38C1018.68 1803.38 1013.6 1801.68 1010.35 1798.27C1007.09 1794.78 1005.47 1790.21 1005.47 1784.58V1755.78H987.737V1742.1H1005.47V1723.3H1022.72V1742.1H1048.19V1755.78H1022.72V1782.44C1022.72 1787.28 1025.1 1789.7 1029.86 1789.7H1051.52V1803.38H1025.58ZM1058.37 1803.98V1790.29H1116.68C1120.01 1790.29 1121.68 1788.43 1121.68 1784.7C1121.68 1781.05 1120.01 1779.23 1116.68 1779.23H1078.96C1071.9 1779.23 1066.54 1777.64 1062.89 1774.47C1059.24 1771.21 1057.42 1766.57 1057.42 1760.54C1057.42 1754.43 1059.24 1749.75 1062.89 1746.5C1066.62 1743.17 1071.97 1741.5 1078.96 1741.5H1133.22V1755.19H1079.79C1076.38 1755.19 1074.67 1756.85 1074.67 1760.19C1074.67 1761.85 1075.15 1763.16 1076.1 1764.11C1077.05 1765.06 1078.28 1765.54 1079.79 1765.54H1119.77C1125.96 1765.54 1130.68 1767.17 1133.93 1770.42C1137.27 1773.59 1138.93 1778.23 1138.93 1784.34C1138.93 1790.53 1137.27 1795.37 1133.93 1798.86C1130.6 1802.27 1125.88 1803.98 1119.77 1803.98H1058.37Z" fill="white"/>
<path d="M712.657 1320.38V1442.55H762.907C771.88 1487.47 814.952 1514.42 836.487 1519.81H712.657V1638.38H635.487V1320.38H712.657Z" fill="#FF9933"/>
<path d="M927.487 1639.38H779.487V1541.38H843.68V1578.8H927.487V1639.38Z" fill="#FF9933"/>
<path d="M927.487 1510.38H843.68C809.067 1488.55 790.186 1469.07 779.487 1440.33V1325.38H927.487V1386.45H843.68V1445.72H927.487V1510.38Z" fill="#FF9933"/>
<path d="M1103.62 1430.68L1164.49 1387.59C1152.72 1368.19 1139.42 1351.17 1125.1 1340.91C1112.57 1331.94 1098.25 1325.09 1082.13 1321.17C1068.4 1317.82 1049.24 1317.85 1035.58 1319.37C1021.56 1320.93 1005.86 1326.55 990.826 1339.12C980.084 1348.09 971.222 1362.14 967.552 1375.02C963.971 1387.59 963.907 1405.75 969.342 1418.11C974.078 1428.88 980.452 1433.55 994.407 1443.24H971.132C963.971 1443.24 958.6 1439.65 955.02 1432.47C951.806 1426.03 949.741 1418.85 946.068 1403.75C945.914 1420.51 946.068 1432.47 949.649 1443.24C954.496 1457.82 959.483 1463.94 967.552 1473.76C973.628 1481.16 987.245 1491.71 1005.15 1498.89C1017.68 1503.92 1037.69 1509.23 1060.65 1515.05C1071.93 1518.44 1078.55 1522.23 1082.13 1529.41C1085.53 1536.22 1085.03 1541.8 1083.92 1547.37C1082.13 1556.34 1074.97 1561.73 1067.81 1563.52C1060.65 1565.32 1051.9 1566.36 1039.16 1563.52C1026.38 1559.2 1019.41 1553.34 1006.94 1536.59L942.487 1583.27C962.01 1607.22 979.19 1622.12 997.987 1629.95C1023.68 1640.64 1039.16 1644.31 1076.76 1638.92C1088.52 1636.56 1094.83 1634.67 1105.41 1629.95C1115.31 1625.57 1120.43 1622.47 1128.68 1615.59C1148.61 1597.43 1156.03 1583.62 1160.91 1558.14C1164.87 1540.32 1162.46 1517.51 1155.54 1500.69C1148.37 1488.12 1146.06 1479.36 1125.1 1462.99C1108.83 1451.72 1098.25 1446.83 1076.76 1441.45C1055.28 1436.06 1040.96 1432.47 1035.58 1427.09C1030.21 1421.7 1028.42 1410.93 1033.79 1403.75C1042.1 1392.65 1058.86 1394.77 1067.81 1396.57C1076.76 1398.36 1091.05 1408.61 1103.62 1430.68Z" fill="white"/>
<path d="M1321.49 1535.45V1452.07C1340.59 1452.07 1350.14 1444.77 1350.14 1430.17C1350.14 1416.82 1342.84 1410.14 1328.25 1410.14C1313.5 1410.14 1306.12 1419.3 1306.12 1437.63V1645.38H1211.56V1447.41C1211.56 1426.91 1213.58 1410.14 1217.61 1397.1C1221.81 1383.9 1228.87 1371.64 1238.81 1360.3C1249.99 1347.72 1263.96 1337.79 1280.73 1330.49C1297.5 1323.19 1314.81 1319.54 1332.67 1319.54C1364.97 1319.54 1392.06 1330.41 1413.96 1352.15C1436.01 1373.89 1447.03 1400.83 1447.03 1432.97C1447.03 1464.18 1437.17 1489.49 1417.45 1508.9C1399.44 1526.75 1372.27 1535.68 1335.93 1535.68L1321.49 1535.45Z" fill="white"/>
<path d="M1580.95 1412.94V1645.38H1486.39V1327.46H1607.74C1644.69 1327.46 1673.34 1336.62 1693.68 1354.94C1716.35 1375.44 1727.69 1401.45 1727.69 1432.97C1727.69 1465.11 1713.63 1492.21 1685.53 1514.25L1740.03 1645.38H1640.81L1594.93 1542.9V1461.15H1602.38C1622.26 1461.15 1632.19 1452.61 1632.19 1435.53C1632.19 1420.47 1620.7 1412.94 1597.72 1412.94H1580.95Z" fill="#12B700"/>
<path d="M1840.84 1564.73C1859.3 1589.83 1896.57 1609.56 1937.92 1609.56C2004.61 1609.56 2063.77 1553.97 2061.97 1467.89C2068.74 1447.87 2070.47 1437.8 2070.96 1421.27C2078.15 1433.82 2092.65 1470.97 2081.75 1519.9C2074.55 1552.18 2056.15 1582.58 2036.8 1600.59C2011.76 1623.91 1981.07 1638.25 1943.32 1640.05C1905.56 1641.84 1882.19 1636.46 1855.23 1623.91C1833.65 1613.86 1807.14 1595.21 1786.91 1559.35C1762.64 1516.31 1766.06 1464.3 1776.12 1435.61C1782.77 1416.67 1797.12 1385.27 1828.26 1362.09C1859.4 1338.9 1879.68 1331.46 1919.95 1326.22L1945.11 1362.09C1916.49 1363.24 1898.37 1368.22 1876.8 1381.81C1844.44 1402.2 1820.22 1442.88 1817.47 1484.03C1815.67 1510.93 1821.07 1537.83 1840.84 1564.73Z" fill="#12B700"/>
<path d="M1979.27 1428.44C1979.27 1387.19 1932 1307.08 1835.45 1229.38C1937.67 1271.27 2015.86 1322.63 2047.59 1376.43C2065.57 1406.92 2065.57 1446.37 2047.59 1475.06C2038.6 1489.41 2022.42 1502.77 2009.83 1510.93C1973.88 1534.24 1919.21 1546.76 1862.42 1553.97C1932.91 1519.43 1979.27 1489.41 1979.27 1428.44Z" fill="#12B700"/>
<ellipse cx="2087.14" cy="1345.95" rx="41.3489" ry="41.2457" fill="#12B700"/>
<line x1="635.487" y1="1687.38" x2="1141.49" y2="1687.38" stroke="white" stroke-width="6"/>
<path d="M1395.89 985.945C1381.11 1022 1363.38 1039.63 1326.57 1069.69C1542.92 1151.53 1660.37 1184.49 1866.04 1230.56L1756.8 1142.11C1767.81 1178.05 1759.71 1183.93 1748.23 1181.71C1643.64 1140.32 1486.16 1064.73 1395.89 985.945Z" fill="#12B700" stroke="black"/>
<ellipse cx="61.9137" cy="84.0014" rx="61.9137" ry="84.0014" transform="matrix(0.963324 -0.268339 0.275967 0.961167 644 551.229)" fill="white"/>
<path d="M879.457 812.549C827.674 725.661 940.138 549.559 1089.89 401.925C1017 504.575 980.17 560.316 956.677 640.866C931.912 744.841 1023.78 818.978 1217.35 873.682C1329.53 903.558 1355.92 922.189 1354.46 957.893C1333.74 1045.77 1041.01 1170.36 784.8 1232.82C751.744 1244.89 755.978 1254.34 781.529 1273.31L643.615 1272.71C919.985 1159.76 1018.44 1109.37 1093.31 1037.76C1144.8 973.072 1138.15 944.281 1037.28 911.657C941.325 892.2 911.31 867.954 879.457 812.549Z" fill="white" stroke="black"/>
<path d="M841.884 812.386C866.338 881.301 911.781 901.531 911.781 901.531C833.231 982.304 590.008 856.561 505.988 698.133C642.868 825.42 727.24 850.818 841.884 812.386Z" fill="#FF9933" stroke="#FF9933"/>
</svg>
