<svg width="554" height="221" viewBox="0 0 554 221" fill="none" xmlns="http://www.w3.org/2000/svg">
<rect x="4.00005" y="5e-05" width="549.534" height="148.5" stroke="black" stroke-width="0.0001"/>
<g filter="url(#filter0_d_130_36)">
<path d="M109 9.5C109 13.5 107 19 97 19L30 19.0001C25 19.0001 24 21.0001 24 25.0001L24 58.0001C24 62.0001 26 64.0001 31 64H77.5C84 64.0001 88 68.4999 88 73.5C88 78.5001 84.5 83.0001 77.5 83H30.9127C26.5 83 24 84.5001 24 89.0001V123C24 128 27 129 30 129L99 129C105.5 129 109 133 109 139C109 145 104.5 148 99 148H17C9 148 4 144.5 4 136.5V10.5001C4 3.50012 9.5 0.00012207 15 0.000163939L97 0C107 0 109 5.5 109 9.5Z" fill="#A200FF"/>
<path d="M109 9.5C109 13.5 107 19 97 19L30 19.0001C25 19.0001 24 21.0001 24 25.0001L24 58.0001C24 62.0001 26 64.0001 31 64H77.5C84 64.0001 88 68.4999 88 73.5C88 78.5001 84.5 83.0001 77.5 83H30.9127C26.5 83 24 84.5001 24 89.0001V123C24 128 27 129 30 129L99 129C105.5 129 109 133 109 139C109 145 104.5 148 99 148H17C9 148 4 144.5 4 136.5V10.5001C4 3.50012 9.5 0.00012207 15 0.000163939L97 0C107 0 109 5.5 109 9.5Z" stroke="black" stroke-width="0.0001"/>
</g>
<path d="M193 17.9997C198.514 17.0807 202 14.4997 202 8.99971C202 3.49971 197 0.499704 192 0.499704C181.792 0.406393 173.77 4.39911 169 6.9997C158 12.9997 150 26.4997 150 41.9997V138C150 144.5 154 148 159.5 148C165 148 169.5 144.5 169.5 138V64.9997H188C193.5 64.9997 197.5 62.4996 197.5 56.9997C197.5 51.4997 193.5 48.4997 188 48.4997H169.5V40.9997C169.5 30.9997 173.616 24.6977 178 21.9997C184 18.3074 190 18.4997 193 17.9997Z" fill="#C50ED2" stroke="black" stroke-width="0.001"/>
<path d="M320 94.9999C319.967 99.9994 317 102.999 311 103H306H240.023L241.027 87H302.5C302.5 72 289 60 272 60C253.5 60 241 74.5 241 87L240 103C243 114.5 248 120.5 252.5 124.5C256 127.611 265.5 132 276 132C281.5 132 288.5 131 292.5 128.5C296.033 126.292 299.845 123.593 303.5 123C306.776 122.468 310.5 124 312 127C313 129 313.858 135 309 138.5C301 144.264 291.5 148 281 148.5C274.5 148.5 271.259 148.547 265.5 147.5C243.5 143.5 230.304 129.5 226 117C223.3 109.158 222.5 104.5 222.5 94.9999C223.223 83.1429 224.74 77.3287 229.5 68.4999C233.544 61 240 54.7509 247 50.5C253.5 46.5527 262.784 44.4404 273 43.9999C280 43.9999 285.603 45.0948 291 46.9999C299.5 50 307.849 54.6866 314.5 68.4998C315.848 71.3003 320.076 83.3868 320 94.9999Z" fill="#E81CA6" stroke="black" stroke-width="0.001"/>
<path d="M358 138L359 54C359 47 362.5 43 369 43H409C439.5 43 456 66 456 91V138C456 143.5 452 148 445.5 148C440 148 435.5 142.5 435.5 138V90C435.5 72 421.5 61.5 406 61.5C391 61.5 378.5 72.5 378.5 85V138C378.5 144 374 148 368 148C362 148 358 143 358 138Z" fill="#FF2A79" stroke="black" stroke-width="0.0001"/>
<path d="M505.5 21C505.5 15 510 11.5 515 11.5C520.5 11.5 525 15 525 21V48H541.5C547 48 549.5 52 549.5 56.5C549.5 62 546 64.5 541.5 65H525V113C525 119.5 530 128.5 537 128.5H544C550.5 128.5 553.915 133.517 553.5 138.5C553 144.5 548 148 540.5 148C520 148 505.5 132 505.5 113.5V21Z" fill="#FF384C" stroke="black" stroke-width="0.0001"/>
<path d="M31 187V179H4V220H31V212H13V203.5H31V195.5H13V187H31Z" fill="#B79C9A"/>
<path d="M42.5 191H33.5L44.5 220H52.5L64 191H55L48.5 207L42.5 191Z" fill="#B79C9A"/>
<path d="M94 209.5H72.5389V202H85C83.5 199 81 198.5 78.5 198.5C76 198.5 73.5 200 72.5 202V209.5C74.6291 211.549 76 212.5 79 212.5C81 212.5 82.211 211.742 84 210.5L90 216C86.6902 218.908 83.5 220.5 79 220.5C71.5 220.5 64 215 64 205.5C64 199 69 190.5 79 190.5C89.5 190.5 94 198 94 209.5Z" fill="#B79C9A"/>
<path d="M107 190.5H99V220H107V204.5C107 201 109.5 199.5 112.5 199.5C115.5 199.5 117.5 201.5 117.5 204.5V220H125.5V203.5C125.5 196.5 119.37 191.5 113 191.5C111 191.5 109.501 191.722 107 192.5V190.5Z" fill="#B79C9A"/>
<path d="M141.5 181L133 184V207C133.5 215 139.5 220.5 150 220.5V213C145 213 141.5 209.5 141.5 206V198.5H150V190.5H141.5V181Z" fill="#B79C9A"/>
<path d="M31 187V179H4V220H31V212H13V203.5H31V195.5H13V187H31Z" stroke="black" stroke-width="1e-06"/>
<path d="M42.5 191H33.5L44.5 220H52.5L64 191H55L48.5 207L42.5 191Z" stroke="black" stroke-width="1e-06"/>
<path d="M94 209.5H72.5389V202H85C83.5 199 81 198.5 78.5 198.5C76 198.5 73.5 200 72.5 202V209.5C74.6291 211.549 76 212.5 79 212.5C81 212.5 82.211 211.742 84 210.5L90 216C86.6902 218.908 83.5 220.5 79 220.5C71.5 220.5 64 215 64 205.5C64 199 69 190.5 79 190.5C89.5 190.5 94 198 94 209.5Z" stroke="black" stroke-width="1e-06"/>
<path d="M107 190.5H99V220H107V204.5C107 201 109.5 199.5 112.5 199.5C115.5 199.5 117.5 201.5 117.5 204.5V220H125.5V203.5C125.5 196.5 119.37 191.5 113 191.5C111 191.5 109.501 191.722 107 192.5V190.5Z" stroke="black" stroke-width="1e-06"/>
<path d="M141.5 181L133 184V207C133.5 215 139.5 220.5 150 220.5V213C145 213 141.5 209.5 141.5 206V198.5H150V190.5H141.5V181Z" stroke="black" stroke-width="1e-06"/>
<path d="M179 220.5V206V187H185.5C192.5 187 192.5 198 185.5 198H179.02V206H186C204 206 204.174 179.249 186 179.249H170V220.5H179Z" fill="#B79C9A"/>
<path d="M214 177.5L205.5 180.5V220.5H214V177.5Z" fill="#B79C9A"/>
<path d="M242 192V203C242 202 239 198.5 235 198.5C225.5 198.5 225.5 212.5 235 212.5C239.5 212.5 241.5 210 242 205.5L242.02 190H250V220.5H242V218.5C240.5 220 238 221 235 221C214.5 221 214.5 190 235 190C238 190 239.571 190.658 242 192Z" fill="#B79C9A"/>
<path d="M374.5 198V190C367 190 357 195 357 206.5V220.5H365.5V207C365.5 200.5 371.5 198 374.5 198Z" fill="#B79C9A"/>
<path d="M399.5 198.5V190H388C383 190 378.5 193 378.5 199.5C378.5 205.5 382.5 209.5 389.5 209.5C391.5 209.5 391.5 212.5 389.5 212.5H377.5V221H391C394.5 221 400 218 400 211C400 204 396 201.5 389 201.5C386.5 201.5 386.5 198.5 389 198.5H399.5Z" fill="#B79C9A"/>
<path d="M179 220.5V206V187H185.5C192.5 187 192.5 198 185.5 198H179.02V206H186C204 206 204.174 179.249 186 179.249H170V220.5H179Z" stroke="black" stroke-width="0.001"/>
<path d="M214 177.5L205.5 180.5V220.5H214V177.5Z" stroke="black" stroke-width="0.001"/>
<path d="M242 192V203C242 202 239 198.5 235 198.5C225.5 198.5 225.5 212.5 235 212.5C239.5 212.5 241.5 210 242 205.5L242.02 190H250V220.5H242V218.5C240.5 220 238 221 235 221C214.5 221 214.5 190 235 190C238 190 239.571 190.658 242 192Z" stroke="black" stroke-width="0.001"/>
<path d="M374.5 198V190C367 190 357 195 357 206.5V220.5H365.5V207C365.5 200.5 371.5 198 374.5 198Z" stroke="black" stroke-width="0.001"/>
<path d="M399.5 198.5V190H388C383 190 378.5 193 378.5 199.5C378.5 205.5 382.5 209.5 389.5 209.5C391.5 209.5 391.5 212.5 389.5 212.5H377.5V221H391C394.5 221 400 218 400 211C400 204 396 201.5 389 201.5C386.5 201.5 386.5 198.5 389 198.5H399.5Z" stroke="black" stroke-width="0.001"/>
<path d="M265 190.5H257V220.5H265V204.5C265 201 267.5 199.5 270.5 199.5C274 199.5 275.5 202 275.5 204.5V220.5H283.5V204C283.5 197 277 191.225 270 191.5C267.949 191.581 266.854 191.798 265 192.5V190.5Z" fill="#B79C9A"/>
<path d="M299 190H291V220H299V204C299 200.5 301.5 199 304.5 199C308 199 309.5 201.5 309.5 204V220H317.5V203.5C317.5 196.5 311 190.725 304 191C301.949 191.081 300.854 191.298 299 192V190Z" fill="#B79C9A"/>
<path d="M352 209.5H331.027V202H343.5C342.5 200 340 198 337.5 198C334.5 198 332 200 331 201.684V209.5C332.5 212 334.5 213 337.5 213C339.5 213 340.296 212.347 343 210.5L349 216C345.291 219.208 342 220.5 337.5 220.5C331.5 220.5 322.5 217 322.5 205.5C322.5 197 328.5 190.5 337.5 190.5C344.5 190.5 352 196 352 204V209.5Z" fill="#B79C9A"/>
<defs>
<filter id="filter0_d_130_36" x="0" y="0" width="113" height="156" filterUnits="userSpaceOnUse" color-interpolation-filters="sRGB">
<feFlood flood-opacity="0" result="BackgroundImageFix"/>
<feColorMatrix in="SourceAlpha" type="matrix" values="0 0 0 0 0 0 0 0 0 0 0 0 0 0 0 0 0 0 127 0" result="hardAlpha"/>
<feOffset dy="4"/>
<feGaussianBlur stdDeviation="2"/>
<feComposite in2="hardAlpha" operator="out"/>
<feColorMatrix type="matrix" values="0 0 0 0 0 0 0 0 0 0 0 0 0 0 0 0 0 0 0.25 0"/>
<feBlend mode="normal" in2="BackgroundImageFix" result="effect1_dropShadow_130_36"/>
<feBlend mode="normal" in="SourceGraphic" in2="effect1_dropShadow_130_36" result="shape"/>
</filter>
</defs>
</svg>
