<?xml version="1.0" standalone="no"?>
<!DOCTYPE svg PUBLIC "-//W3C//DTD SVG 1.1//EN" "http://www.w3.org/Graphics/SVG/1.1/DTD/svg11.dtd">
<svg xmlns="http://www.w3.org/2000/svg" width="570" height="548" viewBox="0 0 570 548" fill="none">
<path d="M284.51 241.988C267.04 241.988 252.82 227.128 252.82 208.868C252.82 190.608 267.04 175.738 284.51 175.738C301.98 175.738 316.21 190.598 316.21 208.868C316.21 227.138 301.99 241.988 284.51 241.988ZM284.51 181.918C270.44 181.918 258.99 194.008 258.99 208.868C258.99 223.728 270.44 235.868 284.51 235.868C298.58 235.868 310.03 223.778 310.03 208.868C310.03 193.958 298.58 181.918 284.51 181.918Z" fill="black"/>
<path d="M289.091 417.758C285.797 417.706 282.602 416.618 279.961 414.648C273.341 409.898 267.441 399.078 269.911 382.648H259.501C255.951 405.948 245.231 411.308 240.701 412.538C234.701 414.158 228.451 411.888 224.381 406.598C219.601 400.378 217.271 388.998 223.891 374.778L216.481 371.108C209.251 385.618 200.031 393.838 190.891 393.838C185.191 393.838 180.251 390.448 177.681 384.768C174.321 377.338 174.621 365.018 184.991 352.008L175.991 346.798C161.271 365.208 149.301 364.488 144.761 363.278C138.761 361.688 134.481 356.588 133.601 349.988C132.601 342.208 136.241 331.188 149.091 322.178L144.511 315.298C130.981 324.298 118.861 326.818 110.941 322.248C106.011 319.388 103.431 313.988 104.041 307.778C104.851 299.668 111.271 289.148 126.751 283.058L121.541 274.058C99.541 282.638 89.591 276.058 86.261 272.718C81.861 268.338 80.701 261.788 83.261 255.628C86.261 248.378 94.951 240.628 110.581 239.288L110.051 231.038C93.851 232.038 82.051 228.188 77.511 220.268C74.661 215.338 75.131 209.358 78.771 204.268C83.521 197.638 94.351 191.748 110.771 194.208V183.838C87.471 180.298 82.111 169.578 80.891 165.038C79.271 159.038 81.541 152.788 86.821 148.728C93.041 143.938 104.421 141.618 118.651 148.228L122.311 140.828C107.781 133.588 99.521 124.368 99.521 115.228C99.521 109.528 102.911 104.588 108.601 102.018C116.021 98.6678 128.341 98.9678 141.351 109.328L146.561 100.328C128.161 85.6078 128.871 73.6478 130.081 69.1078C131.681 63.1078 136.771 58.8178 143.371 57.9478C151.151 56.9478 162.181 60.5878 171.191 73.4278L178.061 68.8478C169.061 55.3178 166.551 43.1978 171.121 35.2878C173.971 30.3478 179.381 27.7678 185.581 28.3878C193.691 29.1878 204.211 35.6078 210.301 51.0878L219.301 45.8878C210.721 23.9378 217.301 13.9378 220.641 10.5978C225.021 6.19775 231.571 5.03775 237.731 7.59775C245.021 10.5978 252.731 19.3578 254.091 35.1278H261.931L262.361 35.0178C261.221 18.4878 265.071 6.46775 273.091 1.84775C278.031 -1.00225 284.001 -0.532246 289.091 3.09775C295.711 7.84775 301.611 18.6778 299.141 35.0978H309.581C313.131 11.7978 323.851 6.43776 328.381 5.20776C334.381 3.58776 340.631 5.85776 344.701 11.1378C349.481 17.3578 351.811 28.7478 345.191 42.9678L352.601 46.6378C359.831 32.0978 369.051 23.8378 378.191 23.8378C383.891 23.8378 388.831 27.2378 391.401 32.9178C394.761 40.3378 394.461 52.6678 384.091 65.6778L393.091 70.8878C407.811 52.4778 419.771 53.1878 424.321 54.3978C430.321 55.9978 434.601 61.0878 435.481 67.6978C436.481 75.4778 432.841 86.4978 419.991 95.5078L424.571 102.388C438.111 93.3878 450.231 90.8678 458.141 95.4378C463.071 98.2978 465.651 103.698 465.041 109.908C464.231 118.018 457.811 128.538 442.331 134.618L447.541 143.618C469.491 135.038 479.491 141.618 482.821 144.958C487.221 149.348 488.381 155.898 485.821 162.048C482.821 169.308 474.131 177.048 458.501 178.398L459.031 186.648C475.231 185.648 487.031 189.498 491.571 197.408C494.421 202.348 493.951 208.328 490.311 213.408C485.561 220.028 474.731 225.928 458.311 223.458V233.878C481.611 237.418 486.971 248.138 488.191 252.678C489.821 258.678 487.541 264.928 482.261 268.988C476.041 273.768 464.661 276.098 450.431 269.478L446.771 276.888C461.301 284.118 469.561 293.348 469.561 302.488C469.561 308.188 466.171 313.118 460.481 315.698C453.061 319.048 440.731 318.748 427.731 308.388L422.521 317.388C440.921 332.108 440.211 344.068 439.001 348.608C437.401 354.608 432.311 358.888 425.711 359.768C417.931 360.768 406.901 357.128 397.891 344.288L391.021 348.868C400.021 362.398 402.531 374.518 397.961 382.428C395.111 387.368 389.711 389.948 383.501 389.328C375.391 388.528 364.861 382.098 358.781 366.618L349.781 371.828C358.361 393.828 351.781 403.828 348.441 407.108C344.061 411.518 337.511 412.668 331.351 410.108C324.091 407.108 316.351 398.418 315.011 382.788L306.761 383.318C307.761 399.528 303.911 411.318 295.991 415.858C293.902 417.097 291.52 417.753 289.091 417.758ZM255.451 377.998H275.451L274.891 380.768C271.721 396.638 277.071 406.908 282.621 410.888C286.221 413.478 290.221 413.888 293.621 411.888C300.311 408.028 303.381 396.308 301.831 380.538L301.581 377.988H306.581L319.361 374.838V377.838C319.361 394.388 326.441 403.198 333.061 405.928C337.511 407.778 342.061 407.018 345.061 403.928C350.801 398.168 350.641 386.158 344.641 371.798L343.861 369.928L361.221 359.928L362.121 362.598C367.301 377.928 377.121 384.148 383.871 384.818C388.281 385.258 391.931 383.578 393.871 380.208C397.741 373.518 394.541 361.828 385.311 348.948L383.871 346.838L388.161 344.358L397.681 335.208L399.161 337.768C407.431 352.088 417.981 356.188 425.071 355.238C429.851 354.608 433.371 351.708 434.501 347.478C436.581 339.628 430.441 329.308 418.071 319.868L416.451 318.638L426.451 301.278L428.571 303.148C440.721 313.828 452.301 314.328 458.571 311.518C462.571 309.688 464.921 306.408 464.921 302.518C464.921 294.788 456.311 286.268 441.871 279.728L439.541 278.678L442.021 274.388L445.691 261.698L448.251 263.178C462.581 271.448 473.751 269.718 479.431 265.358C483.251 262.418 484.861 258.138 483.711 253.928C481.591 246.078 471.121 240.208 455.711 238.228L453.711 237.968V217.968L456.481 218.518C472.341 221.688 482.621 216.338 486.601 210.788C489.181 207.188 489.601 203.198 487.601 199.788C483.731 193.088 472.011 190.018 456.241 191.578L453.701 191.828V186.828L450.531 174.008H453.531C470.071 174.008 478.891 166.928 481.621 160.308C483.461 155.848 482.711 151.308 479.621 148.258C473.861 142.528 461.861 142.678 447.501 148.678L445.621 149.458L435.621 132.108L438.301 131.198C453.621 126.018 459.851 116.248 460.521 109.448C460.961 105.038 459.281 101.398 455.911 99.4478C449.221 95.5878 437.531 98.7878 424.651 108.018L422.571 109.508L420.101 105.218L410.951 95.6878L413.501 94.2078C427.831 85.9378 431.921 75.3978 430.981 68.3078C430.341 63.5178 427.441 59.9978 423.221 58.8778C415.361 56.7878 405.041 62.8778 395.611 75.2978L394.381 76.9178L377.021 66.9178L378.881 64.7978C389.561 52.6378 390.071 41.0678 387.251 34.8478C385.431 30.8478 382.151 28.4878 378.251 28.4878C370.521 28.4878 362.001 37.1078 355.461 51.5378L354.461 53.8678L350.171 51.3878L337.481 47.7178L338.961 45.1578C347.221 30.8278 345.501 19.6578 341.141 13.9778C338.201 10.1578 333.931 8.55776 329.701 9.69776C321.861 11.8178 315.991 22.2978 314.001 37.6978L313.741 39.6978H293.581L294.141 36.9378C297.311 21.0678 291.961 10.7878 286.411 6.80776C282.811 4.22776 278.811 3.85776 275.411 5.80776C268.721 9.66776 265.651 21.3878 267.201 37.1578L267.451 39.6978H262.501L249.681 42.8678V39.8678C249.681 23.3278 242.601 14.5178 235.981 11.7778C231.531 9.93776 226.981 10.6878 223.981 13.7778C218.241 19.5378 218.401 31.5478 224.401 45.8978L225.181 47.7778L207.831 57.7778L206.921 55.1078C201.741 39.7778 191.921 33.5578 185.171 32.8778C180.761 32.4478 177.111 34.1278 175.171 37.4878C171.301 44.1878 174.501 55.8678 183.741 68.7478L185.221 70.8278L180.941 73.3078L171.411 82.4578L169.931 79.8978C161.661 65.5778 151.131 61.4878 144.021 62.4178C139.241 63.0578 135.721 65.9578 134.591 70.1778C132.511 78.0378 138.651 88.3578 151.021 97.7878L152.631 99.0278L142.631 116.378L140.511 114.518C128.361 103.838 116.781 103.338 110.561 106.148C106.561 107.978 104.211 111.248 104.211 115.148C104.211 122.878 112.821 131.398 127.211 137.938L129.531 138.998L127.061 143.288L123.391 155.968L120.831 154.498C106.501 146.228 95.331 147.948 89.651 152.318C85.831 155.258 84.231 159.528 85.371 163.748C87.491 171.598 97.961 177.468 113.371 179.448L115.371 179.708V199.708L112.601 199.158C96.741 195.988 86.461 201.338 82.481 206.878C79.901 210.478 79.481 214.478 81.481 217.878C85.351 224.578 97.071 227.638 112.841 226.088L115.381 225.838V230.788L118.581 243.718H115.581C99.041 243.718 90.221 250.798 87.491 257.418C85.651 261.878 86.401 266.418 89.491 269.418C95.251 275.158 107.261 274.998 121.611 269.008L123.491 268.218L133.491 285.578L130.811 286.478C115.491 291.668 109.261 301.478 108.591 308.238C108.151 312.648 109.831 316.288 113.201 318.238C119.891 322.098 131.581 318.898 144.461 309.668L146.541 308.178L149.011 312.468L158.171 321.988L155.611 323.468C141.281 331.748 137.191 342.278 138.131 349.378C138.771 354.158 141.671 357.688 145.891 358.808C153.751 360.888 164.071 354.758 173.501 342.388L174.731 340.768L192.091 350.768L190.231 352.888C179.551 365.038 179.041 376.618 181.861 382.838C183.681 386.838 186.961 389.198 190.861 389.198C198.591 389.198 207.111 380.578 213.651 366.198L214.701 363.868L218.991 366.338L231.681 370.018L230.201 372.578C221.941 386.908 223.661 398.078 228.021 403.748C230.961 407.578 235.241 409.178 239.461 408.038C247.311 405.918 253.171 395.438 255.161 380.038L255.451 377.998Z" fill="black"/>
<path d="M232.699 188.548C232.115 188.546 231.532 188.489 230.959 188.378L230.579 188.278L154.129 162.838L155.369 159.838C177.579 105.228 219.119 75.9877 278.879 72.8377L282.129 72.6677V151.548L282.039 151.908C280.749 157.318 276.899 160.078 271.419 159.588C256.419 162.788 245.789 171.288 239.059 185.588L238.699 186.358L237.999 186.838C236.447 187.932 234.598 188.529 232.699 188.548ZM232.309 182.348C232.853 182.425 233.407 182.323 233.889 182.058C241.509 166.498 253.889 156.878 270.649 153.438L271.149 153.338L271.659 153.408C274.209 153.738 275.329 153.068 275.959 150.798V79.2077C221.649 83.0077 183.449 109.848 162.359 159.028L232.309 182.348Z" fill="black"/>
<path d="M289.65 345.928C263.86 345.928 237.96 337.478 212.15 320.588L209.43 318.838L254.22 257.498L254.5 257.258C258.64 253.778 263.31 253.848 267.39 257.438C281.16 263.678 294.39 263.238 307.8 256.098L308.55 255.698H309.4C310.618 255.709 311.821 255.967 312.937 256.457C314.053 256.947 315.057 257.658 315.89 258.548L316.14 258.848L362.58 323.138L359.72 324.838C336.58 338.908 313.15 345.928 289.65 345.928ZM218.26 317.178C263.56 345.718 309.08 347.108 353.65 321.308L311.27 262.658C310.881 262.282 310.384 262.037 309.85 261.958C294.96 269.608 279.66 269.888 264.37 262.808L263.91 262.598L263.55 262.258C261.55 260.338 260.25 260.548 258.75 261.728L218.26 317.178Z" fill="black"/>
<path d="M203.001 320.768L200.451 318.688C154.951 281.388 139.311 233.078 153.961 175.108L154.761 171.958L230.081 195.268L230.391 195.458C235.181 198.288 236.691 202.788 234.591 207.868C233.211 223.168 238.191 235.788 249.821 246.428L250.451 246.998L250.691 247.808C251.097 248.981 251.256 250.225 251.158 251.462C251.06 252.7 250.707 253.903 250.121 254.998L249.911 255.338L203.001 320.768ZM159.181 179.768C146.761 232.768 161.111 277.118 201.841 311.768L244.771 251.898C244.999 251.397 245.066 250.838 244.961 250.298C232.351 238.468 226.811 223.838 228.491 206.838L228.541 206.328L228.761 205.858C229.821 203.528 229.521 202.258 227.541 200.998L159.181 179.768Z" fill="black"/>
<path d="M331.028 186.838L330.328 186.358L329.968 185.588C323.238 171.328 312.648 162.828 297.608 159.588C292.128 160.078 288.278 157.318 286.988 151.908L286.898 151.548V72.6677L290.148 72.8377C349.908 75.9877 391.458 105.228 413.658 159.748L414.898 162.748L338.448 188.228L338.068 188.328C336.856 188.563 335.607 188.545 334.403 188.273C333.198 188.001 332.062 187.481 331.068 186.748L331.028 186.838ZM406.668 159.068C385.578 109.888 347.378 83.0677 293.068 79.2477V150.838C293.698 153.108 294.818 153.778 297.368 153.448L297.878 153.378L298.378 153.478C315.158 156.918 327.518 166.538 335.128 182.098C335.614 182.362 336.171 182.464 336.718 182.388L406.668 159.068Z" fill="black"/>
<path d="M319.119 253.608L318.909 253.278C318.32 252.183 317.965 250.978 317.865 249.738C317.765 248.499 317.923 247.253 318.329 246.078L318.579 245.268L319.209 244.698C330.839 234.058 335.819 221.448 334.439 206.148C332.339 201.068 333.849 196.568 338.639 193.728L338.949 193.548L414.269 170.228L415.059 173.378C429.719 231.378 414.059 279.658 368.579 316.958L366.029 319.048L319.119 253.608ZM341.489 199.218C339.489 200.488 339.209 201.748 340.269 204.088L340.489 204.548V205.058C342.169 222.058 336.629 236.738 324.019 248.608C323.915 249.145 323.981 249.701 324.209 250.198L367.139 310.078C407.869 275.408 422.219 231.018 409.799 178.078L341.489 199.218Z" fill="black"/>
<path d="M236.75 55.7677C238.156 55.1054 239.614 54.5603 241.11 54.1377C242.871 53.4645 244.819 53.4645 246.58 54.1377C247.238 54.4594 247.817 54.9217 248.277 55.4919C248.737 56.0621 249.065 56.7264 249.24 57.4377C249.476 58.1291 249.574 58.8603 249.528 59.5896C249.482 60.3188 249.292 61.0318 248.97 61.6877C248.432 62.5818 247.719 63.358 246.873 63.9697C246.028 64.5814 245.068 65.0161 244.05 65.2477C243.427 65.4494 242.783 65.5769 242.13 65.6277L244.22 72.8277L241.9 73.5077L236.75 55.7677ZM241.58 63.7677C242.26 63.7289 242.932 63.6046 243.58 63.3977C246.38 62.5877 247.69 60.7277 246.97 58.2477C246.25 55.7677 244.27 55.2477 241.71 55.9577C240.973 56.1546 240.259 56.4295 239.58 56.7777L241.58 63.7677Z" fill="black"/>
<path d="M251.181 69.4178C251.125 69.1002 251.164 68.7731 251.291 68.477C251.419 68.1809 251.631 67.9288 251.901 67.7518C252.17 67.5747 252.486 67.4806 252.808 67.481C253.131 67.4813 253.446 67.5762 253.715 67.7539C253.984 67.9315 254.196 68.1841 254.323 68.4805C254.45 68.7769 254.487 69.104 254.43 69.4215C254.374 69.739 254.225 70.0328 254.003 70.2668C253.781 70.5007 253.495 70.6644 253.181 70.7377C252.963 70.7902 252.736 70.7973 252.515 70.7584C252.293 70.7196 252.082 70.6357 251.895 70.5119C251.707 70.3881 251.547 70.2271 251.424 70.0389C251.302 69.8507 251.219 69.6393 251.181 69.4178Z" fill="black"/>
<path d="M254.66 51.0378C256.296 50.532 257.967 50.1509 259.66 49.8978C263.1 49.3978 265.66 49.8278 267.5 51.1078C268.519 51.8269 269.369 52.7595 269.991 53.8406C270.613 54.9217 270.991 56.1254 271.1 57.3678C271.356 58.6778 271.345 60.0258 271.068 61.3316C270.792 62.6373 270.255 63.874 269.49 64.9678C268.01 66.9678 265.3 68.3078 261.69 68.8378C260.243 69.0599 258.784 69.2001 257.32 69.2578L254.66 51.0378ZM259.46 67.0378C260.278 67.0353 261.095 66.9617 261.9 66.8178C267.01 66.0678 269.36 62.8178 268.63 57.8178C268.01 53.4478 265.13 51.0378 260.07 51.8178C259.127 51.9426 258.199 52.1637 257.3 52.4778L259.46 67.0378Z" fill="black"/>
<path d="M273.58 65.8376C273.551 65.6127 273.569 65.3842 273.632 65.1664C273.696 64.9487 273.804 64.7465 273.949 64.5726C274.095 64.3988 274.275 64.257 274.478 64.1563C274.682 64.0556 274.904 63.9982 275.13 63.9876C275.478 63.9484 275.829 64.0141 276.139 64.1765C276.449 64.3388 276.703 64.5903 276.868 64.8984C277.034 65.2065 277.103 65.5572 277.067 65.9051C277.032 66.2531 276.893 66.5823 276.668 66.8505C276.443 67.1186 276.144 67.3132 275.807 67.4093C275.471 67.5053 275.114 67.4984 274.781 67.3894C274.449 67.2804 274.157 67.0743 273.943 66.7977C273.729 66.5211 273.602 66.1867 273.58 65.8376Z" fill="black"/>
<path d="M289.581 58.1577L282.301 58.0877L282.241 64.8377L290.351 64.9177V66.9177L279.801 66.8377L279.971 48.1177L290.081 48.2077V50.2077L282.391 50.1377L282.331 56.0477L289.611 56.1177L289.581 58.1577Z" fill="black"/>
<path d="M292.46 65.7478C292.461 65.5203 292.511 65.2957 292.604 65.0884C292.698 64.8811 292.834 64.6956 293.003 64.544C293.173 64.3923 293.372 64.2779 293.589 64.2079C293.805 64.1379 294.034 64.1141 294.26 64.1378C294.723 64.1789 295.15 64.4022 295.448 64.7585C295.747 65.1148 295.891 65.575 295.85 66.0378C295.809 66.5006 295.585 66.9281 295.229 67.2263C294.873 67.5245 294.413 67.6689 293.95 67.6278C293.726 67.6097 293.507 67.5457 293.309 67.4398C293.11 67.3338 292.936 67.1881 292.796 67.0117C292.656 66.8354 292.554 66.6322 292.497 66.4147C292.439 66.1973 292.426 65.9703 292.46 65.7478Z" fill="black"/>
<path d="M302.321 62.2978L299.431 67.7778L296.961 67.3678L306.331 49.9578L309.201 50.4378L312.411 69.9578L309.861 69.5278L308.861 63.3878L302.321 62.2978ZM308.681 61.4478L307.771 55.8278C307.561 54.5578 307.471 53.4178 307.371 52.2978H307.321C306.861 53.3478 306.371 54.4278 305.831 55.4878L303.121 60.4878L308.681 61.4478Z" fill="black"/>
<path d="M320.82 52.6579C319.676 54.73 318.301 56.6657 316.72 58.4278L315.16 58.2478C316.383 56.361 317.437 54.37 318.31 52.2979L320.82 52.6579Z" fill="black"/>
<path d="M317.142 68.7376C317.898 69.5931 318.868 70.2317 319.952 70.5876C321.652 71.0976 322.712 70.4776 323.022 69.4176C323.332 68.3576 322.872 67.4876 321.332 66.3376C319.262 64.8176 318.552 63.2176 319.012 61.6776C319.622 59.5976 321.802 58.3976 324.572 59.2176C325.683 59.5346 326.692 60.1341 327.502 60.9576L326.412 62.4876C325.766 61.764 324.932 61.2343 324.002 60.9576C322.612 60.5476 321.602 61.1176 321.322 62.0776C321.042 63.0376 321.632 63.8476 323.122 64.9876C325.122 66.4976 325.922 67.9876 325.352 69.8776C324.682 72.1376 322.452 73.2076 319.352 72.3076C318.077 71.9454 316.919 71.2559 315.992 70.3076L317.142 68.7376Z" fill="black"/>
<path d="M280.63 547.588C252.54 547.588 224.01 541.388 195.33 528.998L195.11 528.898C171.45 516.428 135.95 507.578 86.58 501.838H86.14L85.74 501.668C50.74 486.818 23.13 462.438 1.37 427.128L0 424.838L63.43 369.058C82.28 351.788 100.26 344.268 118.36 346.058L118.89 346.108L119.38 346.348C131.22 352.028 138.44 359.418 140.83 368.348C143.42 377.948 140.35 389.268 131.71 401.988C127.43 408.178 128.53 415.308 135.53 426.428L184.33 438.078L184.68 438.278C218.62 456.558 252.3 465.878 287.68 466.788C320.1 466.598 347.68 458.328 369.52 442.208L369.85 441.968L370.22 441.818C394.14 432.458 420.93 425.628 452.11 420.938C464.71 416.938 475.75 409.938 486.81 398.938L513.36 365.938L569.03 424.838L568.18 426.728C556.4 452.838 531.49 475.838 492.03 497.048L491.26 497.448H490.4C459.91 495.788 400.95 516.448 348.96 534.678C343.627 536.558 338.337 538.408 333.09 540.228L332.92 540.288C315.913 545.136 298.314 547.593 280.63 547.588ZM197.88 523.378C243.16 542.908 288 546.588 331.15 534.378L346.92 528.838C401.51 509.688 457.99 489.908 489.86 491.218C526.69 471.338 550.22 450.008 561.69 426.068L513.69 375.348L491.24 403.218C479.51 414.888 467.24 422.638 453.71 426.928L453.23 427.038C422.57 431.628 396.23 438.308 372.81 447.448C349.94 464.198 321.26 472.788 287.58 472.988C251.26 472.058 216.78 462.558 182.09 443.928L131.68 431.838L131.01 430.838C125.01 421.538 119.01 409.468 126.62 398.528C134.19 387.378 136.97 377.758 134.87 369.968C133 362.968 127.05 357.018 117.2 352.198C101.13 350.758 84.89 357.788 67.55 373.668L8 426.038C28.76 458.898 54.87 481.718 87.74 495.758C137.58 501.578 173.58 510.618 197.88 523.378Z" fill="black"/>
<path d="M131.379 433.598C102.079 417.958 78.0491 399.038 59.2891 376.838L72.9691 365.018C85.8991 376.018 104.239 383.878 126.969 389.178L131.379 433.598Z" fill="black"/>
<path d="M448.981 422.138L446.251 418.398C452.251 414.008 450.591 405.688 440.471 389.648L440.201 389.218L440.131 388.718C437.131 365.598 443.681 351.848 460.261 346.718C483.941 338.408 502.991 355.518 515.261 369.108L511.831 372.208C493.511 351.898 478.051 345.388 461.731 351.108C447.501 355.528 442.101 367.108 444.681 387.628C453.121 401.098 459.381 414.548 448.981 422.138Z" fill="black"/>
<path d="M439.489 380.748C452.729 393.748 490.919 369.878 499.849 360.808L515.239 372.898C495.739 392.498 476.489 411.118 459.239 422.138C454.909 420.568 451.099 417.388 447.839 412.468C442.019 400.908 438.899 390.218 439.489 380.748Z" fill="black"/>
<path d="M100.041 467.33L93.9145 465.782L110.082 441.1L117.45 442.962L119.939 472.358L113.812 470.81L112.31 448.237L112.099 448.183L100.041 467.33ZM102.344 456.605L116.815 460.261L115.687 464.724L101.216 461.068L102.344 456.605Z" fill="black"/>
<path d="M130.119 475.473C128.047 474.929 126.379 474.022 125.116 472.753C123.865 471.476 123.046 469.947 122.659 468.166C122.281 466.386 122.361 464.474 122.897 462.427C123.441 460.355 124.318 458.642 125.527 457.288C126.747 455.928 128.215 455.004 129.929 454.515C131.646 454.017 133.528 454.037 135.574 454.574C137.339 455.037 138.8 455.763 139.958 456.752C141.116 457.741 141.929 458.916 142.398 460.278C142.867 461.64 142.936 463.113 142.605 464.697L137.309 463.308C137.425 462.259 137.243 461.343 136.763 460.56C136.294 459.77 135.546 459.241 134.519 458.971C133.649 458.743 132.827 458.781 132.053 459.085C131.29 459.382 130.611 459.931 130.016 460.733C129.421 461.534 128.956 462.571 128.622 463.845C128.283 465.136 128.171 466.28 128.285 467.276C128.408 468.275 128.732 469.097 129.257 469.742C129.783 470.386 130.48 470.823 131.35 471.051C131.991 471.219 132.6 471.238 133.179 471.108C133.766 470.981 134.292 470.711 134.757 470.298C135.233 469.878 135.617 469.327 135.909 468.643L141.205 470.032C140.712 471.555 139.933 472.805 138.869 473.784C137.816 474.756 136.545 475.399 135.055 475.712C133.565 476.025 131.919 475.945 130.119 475.473Z" fill="black"/>
<path d="M147.397 467.143L144.216 478.81L138.619 477.284L145.955 450.376L151.394 451.859L148.59 462.146L148.826 462.211C149.606 461.144 150.597 460.412 151.796 460.014C152.999 459.608 154.366 459.614 155.899 460.032C157.301 460.414 158.439 461.053 159.314 461.951C160.201 462.842 160.778 463.935 161.045 465.232C161.324 466.522 161.244 467.954 160.806 469.528L157.302 482.378L151.705 480.852L154.936 469.001C155.284 467.759 155.233 466.705 154.782 465.839C154.34 464.975 153.549 464.388 152.411 464.078C151.649 463.87 150.93 463.848 150.255 464.012C149.588 464.178 149.004 464.527 148.501 465.058C148.01 465.583 147.642 466.278 147.397 467.143Z" fill="black"/>
<path d="M161.383 483.548L167.068 463.417L172.651 464.994L166.966 485.125L161.383 483.548ZM170.606 461.614C169.776 461.38 169.141 460.903 168.703 460.185C168.275 459.461 168.171 458.71 168.391 457.932C168.608 457.163 169.087 456.586 169.828 456.201C170.58 455.809 171.371 455.731 172.201 455.965C173.031 456.2 173.66 456.679 174.087 457.404C174.526 458.122 174.637 458.866 174.42 459.634C174.2 460.412 173.714 460.997 172.962 461.388C172.221 461.773 171.436 461.848 170.606 461.614Z" fill="black"/>
<path d="M182.056 489.902C179.99 489.299 178.334 488.362 177.088 487.091C175.853 485.813 175.059 484.286 174.708 482.509C174.358 480.724 174.492 478.772 175.11 476.654C175.713 474.589 176.642 472.893 177.899 471.567C179.156 470.24 180.639 469.354 182.349 468.907C184.068 468.462 185.912 468.527 187.882 469.102C189.206 469.488 190.377 470.061 191.395 470.821C192.423 471.575 193.241 472.5 193.849 473.594C194.465 474.691 194.826 475.95 194.932 477.371C195.04 478.784 194.845 480.344 194.347 482.052L193.9 483.582L176.944 478.636L177.95 475.185L189.665 478.601C189.898 477.8 189.931 477.038 189.763 476.318C189.595 475.597 189.252 474.973 188.735 474.443C188.229 473.908 187.571 473.522 186.761 473.286C185.915 473.039 185.108 473.017 184.34 473.218C183.583 473.414 182.927 473.785 182.37 474.332C181.816 474.87 181.419 475.534 181.179 476.325L180.221 479.606C179.932 480.6 179.864 481.512 180.019 482.342C180.183 483.175 180.548 483.887 181.113 484.477C181.679 485.068 182.428 485.499 183.36 485.771C183.979 485.951 184.571 486.029 185.136 486.005C185.701 485.981 186.218 485.848 186.685 485.606C187.153 485.364 187.557 485.018 187.896 484.569L192.948 486.411C192.325 487.572 191.474 488.497 190.394 489.184C189.325 489.865 188.08 490.278 186.657 490.421C185.246 490.558 183.712 490.385 182.056 489.902Z" fill="black"/>
<path d="M215.631 477.506L202.544 495.467L196.269 493.571L195.315 471.369L201.198 473.146L201.028 488.774L201.237 488.838L209.735 475.725L215.631 477.506Z" fill="black"/>
<path d="M210.223 497.986L216.513 478.036L222.046 479.781L215.756 499.731L210.223 497.986ZM220.103 476.341C219.28 476.082 218.661 475.586 218.244 474.855C217.839 474.118 217.757 473.364 218 472.594C218.241 471.832 218.737 471.269 219.489 470.907C220.252 470.538 221.046 470.484 221.868 470.743C222.691 471.002 223.305 471.501 223.71 472.238C224.127 472.969 224.215 473.716 223.975 474.477C223.732 475.248 223.229 475.818 222.465 476.186C221.713 476.549 220.926 476.6 220.103 476.341Z" fill="black"/>
<path d="M231.239 492.004L227.46 503.492L221.949 501.679L228.486 481.808L233.738 483.536L232.585 487.042L232.818 487.119C233.638 486.108 234.676 485.436 235.932 485.104C237.191 484.763 238.558 484.835 240.033 485.32C241.413 485.774 242.517 486.472 243.344 487.413C244.172 488.354 244.686 489.479 244.887 490.788C245.09 492.088 244.937 493.509 244.43 495.053L240.267 507.705L234.756 505.892L238.595 494.223C239.004 493.01 239.005 491.959 238.6 491.071C238.197 490.174 237.444 489.544 236.34 489.18C235.599 488.936 234.891 488.88 234.216 489.012C233.551 489.147 232.958 489.468 232.437 489.975C231.928 490.477 231.529 491.153 231.239 492.004Z" fill="black"/>
<path d="M250.632 520.197C248.866 519.577 247.436 518.802 246.344 517.872C245.257 516.954 244.488 515.95 244.036 514.862C243.584 513.773 243.429 512.674 243.569 511.563L248.851 512.655C248.867 513.102 248.981 513.554 249.194 514.012C249.407 514.471 249.751 514.898 250.225 515.295C250.705 515.703 251.342 516.046 252.136 516.325C253.322 516.741 254.401 516.794 255.373 516.483C256.35 516.184 257.075 515.36 257.549 514.012L258.812 510.415L258.581 510.334C258.151 510.796 257.611 511.187 256.962 511.505C256.313 511.824 255.56 512.005 254.701 512.049C253.842 512.092 252.892 511.931 251.851 511.566C250.374 511.048 249.15 510.234 248.178 509.126C247.217 508.012 246.627 506.621 246.407 504.953C246.199 503.279 246.477 501.354 247.241 499.178C248.023 496.95 249.039 495.217 250.289 493.978C251.539 492.739 252.896 491.96 254.36 491.64C255.832 491.323 257.29 491.418 258.732 491.924C259.833 492.31 260.689 492.822 261.299 493.458C261.913 494.086 262.349 494.756 262.606 495.47C262.875 496.178 263.041 496.84 263.102 497.456L263.307 497.528L264.467 494.225L269.882 496.126L262.911 515.981C262.324 517.654 261.423 518.909 260.208 519.748C258.993 520.587 257.562 521.034 255.913 521.088C254.27 521.153 252.51 520.856 250.632 520.197ZM255.017 508.076C255.896 508.385 256.715 508.428 257.474 508.205C258.244 507.977 258.935 507.51 259.547 506.805C260.17 506.094 260.684 505.162 261.089 504.01C261.493 502.858 261.682 501.803 261.654 500.844C261.629 499.877 261.392 499.05 260.942 498.365C260.493 497.68 259.828 497.183 258.949 496.875C258.053 496.56 257.213 496.538 256.427 496.809C255.645 497.071 254.946 497.574 254.331 498.316C253.716 499.059 253.212 499.989 252.819 501.107C252.421 502.242 252.234 503.279 252.259 504.218C252.296 505.151 252.538 505.95 252.985 506.615C253.443 507.274 254.121 507.762 255.017 508.076Z" fill="black"/>
<path d="M281.599 496.359L280.578 491.594L303.026 486.784L304.047 491.549L295.679 493.342L300.515 515.91L294.803 517.134L289.967 494.566L281.599 496.359Z" fill="black"/>
<path d="M318.944 499.257L321.878 510.989L316.25 512.397L309.483 485.339L314.953 483.971L317.54 494.316L317.778 494.256C317.936 492.944 318.441 491.821 319.293 490.887C320.143 489.945 321.339 489.281 322.88 488.895C324.29 488.543 325.595 488.544 326.798 488.898C328.007 489.242 329.045 489.913 329.913 490.913C330.787 491.902 331.418 493.19 331.805 494.777L335.037 507.698L329.408 509.106L326.428 497.189C326.124 495.936 325.564 495.042 324.747 494.507C323.939 493.97 322.962 493.844 321.817 494.131C321.051 494.322 320.413 494.655 319.905 495.128C319.405 495.599 319.066 496.19 318.888 496.899C318.716 497.597 318.735 498.383 318.944 499.257Z" fill="black"/>
<path d="M348.347 504.523C346.271 505.087 344.369 505.152 342.642 504.718C340.922 504.273 339.448 503.384 338.221 502.052C336.991 500.712 336.087 498.977 335.509 496.848C334.944 494.772 334.852 492.84 335.232 491.052C335.612 489.265 336.415 487.735 337.64 486.461C338.874 485.185 340.481 484.278 342.461 483.74C343.793 483.378 345.091 483.256 346.355 483.373C347.626 483.48 348.806 483.841 349.895 484.458C350.994 485.072 351.959 485.958 352.791 487.115C353.62 488.263 354.268 489.696 354.735 491.413L355.152 492.95L338.107 497.582L337.164 494.112L348.94 490.913C348.721 490.107 348.351 489.44 347.832 488.913C347.313 488.387 346.694 488.032 345.977 487.851C345.266 487.658 344.503 487.673 343.688 487.894C342.838 488.125 342.138 488.527 341.589 489.1C341.045 489.661 340.678 490.321 340.489 491.078C340.297 491.826 340.305 492.6 340.513 493.4L341.409 496.698C341.681 497.697 342.099 498.51 342.665 499.138C343.239 499.762 343.921 500.179 344.712 500.388C345.502 500.596 346.366 500.573 347.304 500.318C347.926 500.149 348.472 499.907 348.941 499.591C349.41 499.276 349.781 498.893 350.054 498.442C350.327 497.992 350.49 497.486 350.545 496.926L355.816 495.861C355.891 497.176 355.648 498.409 355.085 499.559C354.529 500.698 353.682 501.7 352.543 502.564C351.41 503.418 350.012 504.07 348.347 504.523Z" fill="black"/>
<path d="M364.28 499.652L356.321 472.921L367.024 469.734C368.991 469.149 370.718 468.952 372.205 469.144C373.693 469.336 374.921 469.851 375.891 470.689C376.858 471.519 377.541 472.604 377.94 473.944C378.251 474.988 378.315 475.969 378.133 476.885C377.949 477.792 377.566 478.607 376.986 479.33C376.411 480.041 375.689 480.639 374.82 481.125L374.898 481.386C375.929 481.127 376.967 481.13 378.013 481.397C379.067 481.661 380.015 482.188 380.857 482.98C381.697 483.762 382.312 484.811 382.703 486.124C383.125 487.543 383.15 488.914 382.777 490.238C382.41 491.55 381.639 492.731 380.464 493.782C379.29 494.833 377.702 495.656 375.701 496.252L364.28 499.652ZM368.556 493.349L373.163 491.977C374.738 491.508 375.798 490.866 376.341 490.051C376.882 489.226 377.002 488.31 376.702 487.3C376.481 486.561 376.109 485.961 375.583 485.502C375.058 485.042 374.417 484.75 373.66 484.625C372.911 484.497 372.085 484.568 371.18 484.838L366.442 486.248L368.556 493.349ZM365.303 482.424L369.493 481.177C370.267 480.946 370.915 480.607 371.435 480.158C371.961 479.698 372.323 479.164 372.521 478.556C372.727 477.945 372.726 477.287 372.516 476.582C372.228 475.616 371.653 474.94 370.789 474.553C369.934 474.163 368.88 474.155 367.627 474.528L363.333 475.807L365.303 482.424Z" fill="black"/>
<path d="M399.513 489.37C397.461 490.015 395.563 490.154 393.821 489.787C392.084 489.409 390.577 488.579 389.299 487.296C388.018 486.004 387.047 484.306 386.386 482.201C385.741 480.148 385.574 478.221 385.884 476.421C386.194 474.62 386.937 473.059 388.111 471.739C389.295 470.416 390.865 469.447 392.823 468.832C394.139 468.419 395.432 468.246 396.7 468.315C397.974 468.371 399.167 468.687 400.28 469.26C401.401 469.831 402.4 470.679 403.276 471.803C404.149 472.918 404.853 474.324 405.386 476.022L405.863 477.542L389.011 482.833L387.934 479.403L399.576 475.748C399.326 474.951 398.931 474.299 398.391 473.793C397.852 473.287 397.22 472.957 396.496 472.803C395.778 472.639 395.017 472.683 394.211 472.936C393.371 473.199 392.687 473.628 392.16 474.222C391.638 474.804 391.298 475.478 391.138 476.241C390.975 476.997 391.013 477.77 391.252 478.561L392.276 481.822C392.586 482.81 393.036 483.606 393.626 484.21C394.224 484.812 394.922 485.202 395.72 485.38C396.518 485.558 397.38 485.501 398.307 485.21C398.922 485.017 399.458 484.753 399.915 484.42C400.371 484.086 400.727 483.689 400.982 483.228C401.237 482.767 401.381 482.256 401.414 481.694L406.639 480.424C406.766 481.736 406.57 482.977 406.053 484.148C405.542 485.308 404.734 486.342 403.63 487.25C402.531 488.147 401.159 488.854 399.513 489.37Z" fill="black"/>
<path d="M419.869 466.681L414.925 468.638C414.698 468.235 414.386 467.907 413.989 467.655C413.589 467.395 413.122 467.237 412.589 467.182C412.061 467.115 411.478 467.186 410.84 467.394C409.986 467.673 409.325 468.089 408.857 468.643C408.386 469.188 408.247 469.758 408.441 470.353C408.596 470.827 408.917 471.167 409.403 471.37C409.89 471.574 410.627 471.625 411.614 471.522L415.447 471.073C417.509 470.839 419.158 471.008 420.393 471.578C421.629 472.148 422.481 473.149 422.948 474.581C423.373 475.883 423.362 477.151 422.915 478.385C422.477 479.616 421.684 480.724 420.536 481.709C419.394 482.683 417.96 483.452 416.235 484.015C413.604 484.873 411.33 485.009 409.411 484.423C407.498 483.826 406.099 482.622 405.212 480.812L410.54 478.758C410.966 479.507 411.562 479.99 412.33 480.207C413.094 480.416 413.968 480.36 414.952 480.039C415.918 479.723 416.633 479.285 417.099 478.722C417.57 478.149 417.713 477.563 417.528 476.965C417.356 476.468 417.011 476.127 416.493 475.943C415.972 475.75 415.252 475.708 414.333 475.817L410.668 476.254C408.6 476.5 406.936 476.298 405.675 475.65C404.422 475 403.554 473.933 403.07 472.449C402.653 471.173 402.64 469.96 403.028 468.812C403.426 467.662 404.173 466.631 405.269 465.719C406.373 464.805 407.775 464.071 409.474 463.517C411.984 462.698 414.133 462.584 415.919 463.174C417.714 463.763 419.031 464.931 419.869 466.681Z" fill="black"/>
<path d="M428.799 457.381L430.178 461.515L418.227 465.5L416.849 461.366L428.799 457.381ZM417.977 455.707L423.48 453.872L429.649 472.372C429.818 472.88 430.028 473.251 430.278 473.483C430.525 473.707 430.805 473.829 431.118 473.849C431.439 473.866 431.785 473.813 432.155 473.69C432.414 473.604 432.665 473.496 432.909 473.367C433.15 473.229 433.335 473.124 433.465 473.052L435.696 476.859C435.449 477.037 435.094 477.265 434.632 477.544C434.173 477.831 433.59 478.107 432.884 478.371C431.575 478.865 430.353 479.076 429.219 479.004C428.093 478.93 427.113 478.558 426.277 477.889C425.442 477.22 424.812 476.234 424.387 474.931L417.977 455.707Z" fill="black"/>
<path d="M442.586 182.614L441.745 179.634C442.552 179.216 443.218 178.695 443.742 178.072C444.269 177.456 444.665 176.774 444.929 176.025C445.203 175.281 445.347 174.501 445.358 173.685C445.37 172.869 445.261 172.052 445.03 171.235C444.61 169.745 443.852 168.502 442.758 167.505C441.666 166.516 440.286 165.872 438.619 165.572C436.955 165.281 435.057 165.436 432.926 166.038C430.795 166.639 429.097 167.499 427.83 168.618C426.565 169.744 425.726 171.014 425.312 172.428C424.9 173.85 424.905 175.306 425.325 176.796C425.556 177.613 425.889 178.367 426.326 179.056C426.763 179.746 427.289 180.337 427.903 180.829C428.528 181.328 429.226 181.701 429.997 181.951C430.778 182.206 431.618 182.302 432.517 182.239L433.358 185.218C432.037 185.349 430.796 185.258 429.636 184.946C428.475 184.633 427.422 184.135 426.477 183.45C425.539 182.764 424.735 181.922 424.065 180.927C423.397 179.939 422.888 178.825 422.538 177.583C421.945 175.484 421.931 173.473 422.495 171.55C423.06 169.626 424.155 167.929 425.781 166.459C427.406 164.988 429.517 163.886 432.112 163.154C434.708 162.422 437.083 162.257 439.238 162.661C441.392 163.065 443.213 163.939 444.7 165.283C446.186 166.628 447.225 168.35 447.818 170.449C448.168 171.69 448.317 172.906 448.264 174.098C448.213 175.297 447.963 176.435 447.515 177.513C447.075 178.588 446.442 179.563 445.616 180.436C444.798 181.307 443.788 182.033 442.586 182.614Z" fill="black"/>
<path d="M440.383 205.894C437.707 206.223 435.334 206.024 433.266 205.297C431.197 204.57 429.531 203.429 428.266 201.874C427.002 200.319 426.236 198.459 425.97 196.295C425.704 194.13 425.996 192.141 426.846 190.325C427.696 188.51 429.037 187 430.868 185.793C432.698 184.587 434.952 183.819 437.628 183.49C440.305 183.161 442.677 183.36 444.746 184.087C446.814 184.814 448.481 185.955 449.745 187.51C451.01 189.065 451.775 190.925 452.041 193.089C452.307 195.253 452.015 197.243 451.165 199.058C450.315 200.874 448.975 202.384 447.144 203.591C445.313 204.797 443.06 205.564 440.383 205.894ZM440.017 202.92C442.215 202.649 444.024 202.054 445.445 201.133C446.868 200.22 447.891 199.092 448.514 197.749C449.138 196.415 449.355 194.979 449.167 193.443C448.978 191.906 448.418 190.562 447.488 189.41C446.559 188.266 445.294 187.42 443.692 186.87C442.091 186.329 440.191 186.194 437.994 186.464C435.797 186.734 433.987 187.326 432.565 188.239C431.143 189.16 430.12 190.288 429.496 191.622C428.873 192.965 428.656 194.405 428.845 195.941C429.034 197.478 429.593 198.818 430.522 199.962C431.452 201.113 432.717 201.96 434.318 202.501C435.92 203.05 437.82 203.19 440.017 202.92Z" fill="black"/>
<path d="M427.305 209.68L452.874 210.192L452.813 213.288L429.991 212.831L429.758 224.717L427.012 224.662L427.305 209.68Z" fill="black"/>
<path d="M426.649 225.855L451.979 229.339L451.557 232.406L428.948 229.297L427.329 241.071L424.608 240.697L426.649 225.855Z" fill="black"/>
<path d="M424.139 241.808L448.871 248.292L444.958 263.219L442.301 262.522L445.429 250.591L437.072 248.4L434.147 259.558L431.49 258.862L434.416 247.703L426.01 245.5L422.832 257.624L420.175 256.928L424.139 241.808Z" fill="black"/>
<path d="M429.119 280.91C430 280.983 430.835 280.941 431.623 280.785C432.415 280.639 433.15 280.375 433.826 279.991C434.498 279.614 435.1 279.118 435.63 278.501C436.16 277.884 436.604 277.15 436.962 276.298C437.549 274.902 437.722 273.481 437.482 272.034C437.241 270.588 436.561 269.232 435.44 267.966C434.32 266.701 432.739 265.639 430.698 264.781C428.658 263.923 426.791 263.541 425.1 263.633C423.409 263.726 421.958 264.204 420.746 265.067C419.535 265.93 418.623 267.09 418.01 268.548C417.442 269.899 417.23 271.209 417.373 272.479C417.521 273.76 418.003 274.911 418.82 275.931C419.642 276.963 420.774 277.781 422.216 278.388L421.664 279.185L424.644 272.096L427.176 273.16L423.403 282.137L420.871 281.073C418.93 280.257 417.416 279.133 416.329 277.701C415.24 276.277 414.605 274.674 414.424 272.891C414.248 271.12 414.553 269.298 415.34 267.426C416.217 265.339 417.479 263.712 419.126 262.544C420.769 261.384 422.681 260.743 424.863 260.622C427.041 260.508 429.374 260.974 431.86 262.019C433.724 262.803 435.296 263.757 436.575 264.881C437.858 266.017 438.832 267.266 439.496 268.628C440.16 269.991 440.507 271.419 440.539 272.913C440.57 274.407 440.268 275.909 439.632 277.421C439.11 278.664 438.435 279.743 437.607 280.659C436.784 281.586 435.854 282.328 434.816 282.885C433.783 283.453 432.675 283.823 431.493 283.994C430.318 284.168 429.114 284.122 427.88 283.857L429.119 280.91Z" fill="black"/>
<path d="M410.546 278.266L432.56 291.321L424.702 304.619L422.337 303.217L428.618 292.587L421.18 288.176L415.306 298.117L412.941 296.715L418.815 286.774L411.334 282.337L404.951 293.139L402.587 291.736L410.546 278.266Z" fill="black"/>
<path d="M392.491 323.006C390.488 321.201 389.082 319.28 388.274 317.242C387.466 315.203 387.235 313.197 387.58 311.222C387.924 309.248 388.827 307.45 390.286 305.83C391.745 304.21 393.439 303.125 395.367 302.577C397.295 302.028 399.314 302.05 401.426 302.641C403.537 303.232 405.594 304.429 407.598 306.234C409.602 308.039 411.007 309.96 411.815 311.999C412.623 314.037 412.854 316.043 412.51 318.018C412.165 319.992 411.263 321.79 409.803 323.41C408.344 325.03 406.65 326.115 404.722 326.663C402.794 327.212 400.775 327.191 398.664 326.6C396.553 326.009 394.495 324.811 392.491 323.006ZM394.497 320.78C396.142 322.261 397.778 323.237 399.405 323.706C401.027 324.181 402.549 324.213 403.972 323.803C405.389 323.399 406.615 322.622 407.651 321.471C408.687 320.321 409.335 319.017 409.595 317.56C409.849 316.109 409.658 314.598 409.022 313.028C408.381 311.465 407.238 309.942 405.593 308.461C403.948 306.979 402.314 306 400.692 305.525C399.065 305.056 397.543 305.024 396.126 305.428C394.703 305.838 393.474 306.618 392.438 307.769C391.402 308.919 390.757 310.22 390.503 311.671C390.243 313.128 390.434 314.639 391.075 316.202C391.711 317.772 392.852 319.298 394.497 320.78Z" fill="black"/>
<path d="M381.092 315.663L397.408 335.293L385.65 345.092L383.897 342.983L393.281 335.163L387.768 328.53L379.265 335.616L377.512 333.507L386.015 326.422L378.717 317.642L381.092 315.663Z" fill="black"/>
<path d="M361.995 330.19L374.903 352.261L361.583 360.051L360.196 357.68L370.844 351.453L366.482 343.995L356.524 349.819L355.138 347.448L365.096 341.625L360.709 334.124L349.889 340.452L348.503 338.081L361.995 330.19Z" fill="black"/>
<path d="M338.45 369.898L328.674 346.272L331.443 345.127L351.993 358.349L352.223 358.254L344.547 339.704L347.408 338.52L357.185 362.146L354.416 363.291L333.801 350.042L333.57 350.137L341.265 368.733L338.45 369.898Z" fill="black"/>
<path d="M313.485 367.948C313.949 368.701 314.478 369.348 315.072 369.889C315.659 370.441 316.308 370.875 317.018 371.191C317.72 371.509 318.477 371.699 319.288 371.759C320.099 371.82 320.953 371.742 321.851 371.525C323.323 371.168 324.57 370.464 325.592 369.412C326.613 368.36 327.301 367.008 327.654 365.355C328.008 363.703 327.925 361.8 327.404 359.649C326.884 357.497 326.084 355.768 325.006 354.461C323.928 353.155 322.682 352.271 321.269 351.808C319.855 351.345 318.38 351.299 316.843 351.671C315.419 352.015 314.238 352.622 313.301 353.491C312.358 354.37 311.718 355.441 311.381 356.704C311.038 357.978 311.051 359.375 311.419 360.895L310.45 360.924L317.924 359.116L318.57 361.786L309.105 364.075L308.46 361.406C307.964 359.359 307.971 357.474 308.478 355.75C308.978 354.028 309.891 352.565 311.219 351.362C312.54 350.169 314.188 349.333 316.162 348.856C318.362 348.323 320.421 348.373 322.338 349.006C324.246 349.64 325.897 350.799 327.289 352.483C328.673 354.169 329.682 356.323 330.316 358.944C330.792 360.91 330.957 362.741 330.811 364.438C330.658 366.144 330.231 367.669 329.528 369.012C328.826 370.355 327.882 371.483 326.698 372.394C325.515 373.306 324.126 373.954 322.532 374.34C321.222 374.657 319.952 374.754 318.724 374.632C317.489 374.519 316.34 374.211 315.276 373.706C314.206 373.211 313.251 372.539 312.412 371.689C311.574 370.847 310.896 369.85 310.378 368.7L313.485 367.948Z" fill="black"/>
<path d="M304.677 377.076L301.352 351.748L304.416 351.324L307.741 376.651L304.677 377.076Z" fill="black"/>
<path d="M276.986 378.636L276.263 353.078L279.258 352.993L293.753 372.667L294.002 372.66L293.435 352.592L296.53 352.505L297.253 378.063L294.258 378.148L279.712 358.426L279.462 358.433L280.031 378.55L276.986 378.636Z" fill="black"/>
<path d="M273.848 352.589L271.171 378.017L255.825 376.401L256.112 373.67L268.379 374.961L269.284 366.369L257.812 365.161L258.099 362.43L269.571 363.638L270.481 354.996L258.016 353.684L258.303 350.952L273.848 352.589Z" fill="black"/>
<path d="M257.062 350.5L251.462 375.448L236.406 372.068L237.007 369.388L249.043 372.09L250.935 363.66L239.679 361.134L240.28 358.454L251.536 360.98L253.439 352.502L241.209 349.757L241.81 347.077L257.062 350.5Z" fill="black"/>
<path d="M240.672 346.514L231.984 370.534L223.848 367.653C221.967 366.986 220.539 366.119 219.564 365.05C218.586 363.99 218.008 362.801 217.83 361.485C217.651 360.17 217.818 358.804 218.33 357.389C218.842 355.974 219.586 354.821 220.562 353.932C221.538 353.043 222.738 352.498 224.164 352.297C225.586 352.104 227.23 352.338 229.096 352.999L235.68 355.33L234.729 357.958L228.24 355.659C226.954 355.204 225.852 355.025 224.932 355.123C224.005 355.218 223.24 355.547 222.639 356.11C222.026 356.678 221.546 357.443 221.198 358.405C220.851 359.367 220.727 360.271 220.827 361.118C220.928 361.965 221.303 362.724 221.953 363.396C222.6 364.075 223.575 364.645 224.876 365.106L230.002 366.921L237.757 345.481L240.672 346.514ZM225.436 353.29L223.413 340.401L226.799 341.6L228.728 354.456L225.436 353.29Z" fill="black"/>
<path d="M209.761 361.715L220.464 338.525L223.266 339.835L212.563 363.025L209.761 361.715Z" fill="black"/>
<path d="M185.342 347.978L198.596 326.058L201.16 327.62L202.674 352.093L202.888 352.223L213.294 335.012L215.943 336.626L202.689 358.546L200.125 356.984L198.594 332.443L198.381 332.312L187.948 349.566L185.342 347.978Z" fill="black"/>
<path d="M172.274 326.713C171.946 327.538 171.74 328.352 171.658 329.156C171.563 329.96 171.6 330.745 171.767 331.508C171.928 332.267 172.224 332.993 172.656 333.686C173.088 334.379 173.657 335.024 174.363 335.622C175.522 336.602 176.825 337.191 178.274 337.391C179.723 337.591 181.215 337.341 182.75 336.642C184.285 335.942 185.761 334.74 187.178 333.035C188.595 331.33 189.508 329.651 189.917 327.999C190.326 326.347 190.297 324.81 189.831 323.389C189.364 321.968 188.527 320.746 187.318 319.723C186.198 318.776 185.012 318.181 183.759 317.941C182.495 317.701 181.257 317.822 180.045 318.302C178.821 318.784 177.708 319.628 176.706 320.833L176.108 320.065L181.988 325.04L180.23 327.156L172.785 320.856L174.543 318.741C175.891 317.119 177.407 315.999 179.09 315.382C180.768 314.759 182.482 314.627 184.233 314.984C185.973 315.343 187.619 316.179 189.172 317.492C190.903 318.957 192.082 320.654 192.711 322.584C193.334 324.508 193.382 326.536 192.856 328.668C192.324 330.795 191.195 332.896 189.469 334.973C188.174 336.531 186.803 337.757 185.356 338.65C183.897 339.545 182.421 340.108 180.927 340.34C179.434 340.573 177.971 340.481 176.538 340.066C175.106 339.651 173.763 338.913 172.509 337.852C171.479 336.98 170.648 336.01 170.018 334.942C169.377 333.875 168.943 332.76 168.718 331.598C168.48 330.436 168.454 329.262 168.638 328.075C168.817 326.894 169.215 325.751 169.83 324.645L172.274 326.713Z" fill="black"/>
<path d="M174.773 309.204L175.881 308.406C176.661 307.846 177.541 307.292 178.521 306.746C179.495 306.194 180.433 305.694 181.336 305.247C182.238 304.8 182.962 304.451 183.507 304.199L185.076 305.812C184.618 306.107 184.015 306.496 183.265 306.98C182.516 307.465 181.692 308.022 180.793 308.652C179.894 309.27 179.001 309.929 178.113 310.63L177.004 311.498L174.773 309.204Z" fill="black"/>
<path d="M149.338 313.603L147.267 310.55L159.959 291.523L159.791 291.276L137.358 295.948L135.287 292.895L156.445 278.62L158.068 281.013L141.993 291.859L142.133 292.065L162.687 287.819L164.254 290.129L152.658 307.575L152.798 307.781L168.873 296.935L170.496 299.328L149.338 313.603Z" fill="black"/>
<path d="M155.376 275.309L156.711 278.265L129.556 280.21L128.241 277.299L147.674 258.254L149.009 261.21L132.543 277.003L132.625 277.185L155.376 275.309ZM145.784 278.317L140.403 266.401L142.905 265.274L148.286 277.189L145.784 278.317Z" fill="black"/>
<path d="M117.397 244.283L142.054 237.515L142.847 240.404L127.176 259.154L127.242 259.395L146.601 254.081L147.421 257.066L122.764 263.835L121.971 260.945L137.677 242.134L137.611 241.893L118.204 247.221L117.397 244.283Z" fill="black"/>
<path d="M115.426 228.871L115.001 225.805L133.094 223.246C134.709 223.018 136.122 223.12 137.333 223.554C138.544 223.988 139.517 224.703 140.251 225.7C140.986 226.697 141.455 227.929 141.658 229.397C141.85 230.781 141.77 232.049 141.417 233.2C141.056 234.352 140.448 235.303 139.595 236.054C138.741 236.805 137.668 237.272 136.374 237.455L135.956 234.438C136.673 234.337 137.274 234.071 137.761 233.641C138.238 233.204 138.581 232.651 138.791 231.983C139.001 231.314 139.05 230.581 138.939 229.781C138.817 228.899 138.528 228.175 138.071 227.61C137.615 227.044 137.006 226.651 136.245 226.431C135.474 226.204 134.565 226.164 133.519 226.312L115.426 228.871Z" fill="black"/>
<path d="M140.38 221.509L140.442 224.755L114.699 215.854L114.639 212.659L140.024 202.786L140.085 206.031L118.711 214.08L118.715 214.279L140.38 221.509ZM130.371 220.501L130.122 207.419L132.868 207.367L133.117 220.449L130.371 220.501Z" fill="black"/>
<path d="M140.475 201.516L115.098 198.395L116.152 189.821C116.396 187.838 116.935 186.252 117.769 185.064C118.594 183.874 119.631 183.045 120.879 182.578C122.128 182.111 123.499 181.969 124.995 182.153C126.49 182.337 127.778 182.806 128.859 183.559C129.941 184.313 130.734 185.362 131.24 186.707C131.737 188.052 131.865 189.707 131.623 191.673L130.77 198.612L127.994 198.27L128.835 191.431C129.002 190.076 128.937 188.961 128.642 188.086C128.348 187.203 127.861 186.531 127.18 186.07C126.491 185.599 125.639 185.302 124.623 185.177C123.607 185.052 122.695 185.133 121.889 185.419C121.082 185.706 120.421 186.241 119.905 187.024C119.381 187.807 119.035 188.884 118.866 190.255L118.202 195.658L140.853 198.443L140.475 201.516ZM130.544 188.169L142.712 183.326L142.273 186.894L130.118 191.639L130.544 188.169Z" fill="black"/>
<path d="M118.985 174.546L143.944 180.097L143.271 183.12L118.313 177.568L118.985 174.546Z" fill="black"/>
<path d="M147.153 168.338L123.305 159.117L126.529 150.779C127.171 149.118 127.988 147.859 128.98 147.002C129.964 146.142 131.039 145.634 132.206 145.479C133.365 145.32 134.527 145.466 135.691 145.916C136.716 146.312 137.491 146.822 138.018 147.445C138.547 148.06 138.892 148.738 139.052 149.478C139.215 150.21 139.258 150.954 139.18 151.709L139.413 151.799C139.742 151.087 140.281 150.453 141.032 149.896C141.783 149.338 142.69 148.979 143.751 148.819C144.813 148.658 145.972 148.821 147.23 149.307C148.425 149.769 149.395 150.457 150.14 151.369C150.885 152.282 151.31 153.432 151.416 154.821C151.521 156.209 151.211 157.842 150.485 159.721L147.153 168.338ZM145.708 164.46L147.923 158.731C148.652 156.844 148.805 155.364 148.382 154.29C147.953 153.205 147.215 152.46 146.167 152.055C145.36 151.743 144.535 151.66 143.693 151.808C142.843 151.952 142.065 152.325 141.359 152.927C140.646 153.525 140.088 154.345 139.686 155.385L137.417 161.254L145.708 164.46ZM134.902 160.281L136.973 154.925C137.309 154.055 137.441 153.205 137.37 152.375C137.302 151.536 137.036 150.791 136.574 150.139C136.115 149.48 135.467 148.988 134.628 148.664C133.58 148.259 132.551 148.28 131.539 148.728C130.519 149.172 129.703 150.186 129.091 151.77L126.984 157.219L134.902 160.281Z" fill="black"/>
<path d="M149.22 145.756L145.987 144.072L146.271 143.545L142.73 132.109L144.458 128.899L148.179 141.055L148.06 141.275L149.22 145.756ZM154.074 151.489L131.562 139.368L132.959 136.773L155.471 148.895L154.074 151.489ZM159.851 140.761L147.945 142.858L147.137 140.041L161.626 137.463L159.851 140.761Z" fill="black"/>
<path d="M163.716 135.302C163.379 135.817 162.905 136.138 162.294 136.265C161.683 136.392 161.12 136.287 160.605 135.949C160.09 135.612 159.769 135.138 159.642 134.527C159.514 133.916 159.62 133.353 159.957 132.838C160.295 132.323 160.769 132.002 161.38 131.875C161.991 131.748 162.553 131.853 163.069 132.19C163.41 132.414 163.666 132.706 163.837 133.067C164.013 133.422 164.095 133.798 164.082 134.198C164.066 134.586 163.944 134.954 163.716 135.302Z" fill="black"/>
<path d="M144.935 117.464L146.757 118.769C147.311 119.165 147.829 119.689 148.312 120.342C148.794 120.983 149.191 121.706 149.504 122.512C149.815 123.306 149.994 124.129 150.041 124.98L148.065 125.525C147.761 124.663 147.392 123.843 146.958 123.063C146.523 122.271 145.931 121.607 145.182 121.071L143.319 119.737L144.935 117.464ZM148.628 112.268L150.451 113.573C151.004 113.969 151.522 114.494 152.006 115.146C152.487 115.787 152.884 116.51 153.197 117.316C153.509 118.111 153.688 118.933 153.735 119.784L151.759 120.329C151.454 119.468 151.085 118.647 150.652 117.867C150.217 117.076 149.624 116.412 148.875 115.875L147.013 114.541L148.628 112.268Z" fill="black"/>
</svg>