<svg id="Layer_1" data-name="Layer 1" xmlns="http://www.w3.org/2000/svg" viewBox="0 0 156.53 177.96"><defs><style>.cls-1{fill:#ff885a;}</style></defs><path class="cls-1" d="M144.63,184.79H59l-.77-.38c-18.62-9-28.38-24.79-29-46.87V81.69H178.26l0,66.89c-1.85,17.56-13,29.68-33.06,36Zm-83.95-7.47h82.79c16.81-5.46,25.75-15.06,27.32-29.33V89.16H36.65v48.27C37.18,156.36,45.05,169.45,60.68,177.32Z" transform="translate(-21.74 -6.82)"/><path class="cls-1" d="M93.16,108.21l33.38,21.73c3,2.17,3.77,5.73-1.3,8.95L94.16,157.23c-6.27,3.69-8.58.55-8.67-4.83l0-40.2C86.05,107.7,88.93,106.91,93.16,108.21Z" transform="translate(-21.74 -6.82)"/><path class="cls-1" d="M165.69,55.92,42.37,81.77C35.5,83.21,29.87,81.18,29,77l-7.14-34c-.88-4.23,3.46-8.35,10.33-9.79L155.5,7.28c6.86-1.44,12.49.59,13.38,4.82l7.13,34C176.9,50.36,172.56,54.48,165.69,55.92ZM35,75.4c.58.37,2.73,1,6.07.28L164.41,49.83c3.35-.7,5.07-2.12,5.45-2.7l-7-33.47c-.59-.38-2.73-1-6.08-.28L33.45,39.23c-3.34.7-5.06,2.12-5.45,2.69Z" transform="translate(-21.74 -6.82)"/><path class="cls-1" d="M35.57,41.71l5.57-1.17c1.54-.32,3,.27,3.19,1.33l5.61,26.78c.23,1-.84,2.17-2.38,2.49L42,72.31c-1.54.32-3-.27-3.19-1.33L33.19,44.2C33,43.15,34,42,35.57,41.71Z" transform="translate(-21.74 -6.82)"/><path class="cls-1" d="M52.29,38.2,57.86,37c1.54-.33,3,.27,3.19,1.32l5.61,26.78c.22,1.06-.85,2.18-2.39,2.5L58.7,68.81c-1.54.32-3-.27-3.18-1.33L49.9,40.7C49.68,39.64,50.75,38.53,52.29,38.2Z" transform="translate(-21.74 -6.82)"/><path class="cls-1" d="M69,34.7l5.57-1.17c1.54-.32,3,.27,3.19,1.33l5.61,26.78c.23,1.06-.84,2.17-2.38,2.5L75.42,65.3c-1.54.33-3-.27-3.19-1.32L66.62,37.2C66.4,36.14,67.46,35,69,34.7Z" transform="translate(-21.74 -6.82)"/><path class="cls-1" d="M85.72,31.2,91.29,30c1.54-.33,3,.27,3.19,1.33l5.61,26.78c.22,1-.85,2.17-2.38,2.49L92.13,61.8c-1.54.32-3-.27-3.18-1.33L83.33,33.69C83.11,32.64,84.18,31.52,85.72,31.2Z" transform="translate(-21.74 -6.82)"/><path class="cls-1" d="M102.43,27.69,108,26.52c1.53-.32,3,.28,3.18,1.33l5.62,26.78c.22,1.06-.85,2.18-2.39,2.5l-5.57,1.17c-1.54.32-3-.28-3.19-1.33l-5.61-26.78C99.83,29.13,100.9,28,102.43,27.69Z" transform="translate(-21.74 -6.82)"/><path class="cls-1" d="M119,24.22l5.57-1.17c1.54-.33,3,.27,3.18,1.33l5.62,26.78c.22,1.05-.85,2.17-2.39,2.49l-5.57,1.17c-1.54.32-3-.27-3.19-1.33l-5.61-26.78C116.41,25.66,117.48,24.54,119,24.22Z" transform="translate(-21.74 -6.82)"/><path class="cls-1" d="M135.6,20.74l5.57-1.17c1.54-.32,3,.27,3.19,1.33L150,47.68c.22,1.06-.85,2.17-2.39,2.5L142,51.34c-1.54.33-3-.27-3.18-1.32l-5.62-26.78C133,22.18,134.06,21.06,135.6,20.74Z" transform="translate(-21.74 -6.82)"/><path class="cls-1" d="M152.18,17.26l5.57-1.16c1.54-.33,3,.27,3.19,1.32l5.61,26.78c.22,1.06-.84,2.18-2.38,2.5l-5.58,1.17c-1.53.32-3-.27-3.18-1.33l-5.62-26.78C149.57,18.7,150.64,17.59,152.18,17.26Z" transform="translate(-21.74 -6.82)"/></svg>