<svg id="Layer_1" data-name="Layer 1" xmlns="http://www.w3.org/2000/svg" xmlns:xlink="http://www.w3.org/1999/xlink" viewBox="0 0 32 32"><defs><style>.cls-1{fill:#fff;}.cls-2{fill:#25d366;}.cls-3{fill:#7232bd;}.cls-4{fill:url(#linear-gradient);}</style><linearGradient id="linear-gradient" x1="1" y1="19.77" x2="30" y2="19.77" gradientUnits="userSpaceOnUse"><stop offset="0.17" stop-color="#1877f2"/><stop offset="0.17" stop-color="#4261c6"/><stop offset="0.18" stop-color="#694d9d"/><stop offset="0.19" stop-color="#8d3b77"/><stop offset="0.2" stop-color="#ac2b57"/><stop offset="0.21" stop-color="#c61d3b"/><stop offset="0.22" stop-color="#db1225"/><stop offset="0.24" stop-color="#eb0a14"/><stop offset="0.26" stop-color="#f70409"/><stop offset="0.28" stop-color="#fd0102"/><stop offset="0.35" stop-color="red"/><stop offset="0.35" stop-color="#ff0100"/><stop offset="0.38" stop-color="#fe3201"/><stop offset="0.41" stop-color="#fd5d02"/><stop offset="0.44" stop-color="#fc7f03"/><stop offset="0.47" stop-color="#fc9a04"/><stop offset="0.5" stop-color="#fbad05"/><stop offset="0.53" stop-color="#fbb805"/><stop offset="0.56" stop-color="#fbbc05"/><stop offset="0.56" stop-color="#ebbe0c"/><stop offset="0.57" stop-color="#c2c21f"/><stop offset="0.58" stop-color="#9cc630"/><stop offset="0.59" stop-color="#7cca3f"/><stop offset="0.6" stop-color="#60cd4b"/><stop offset="0.61" stop-color="#4acf55"/><stop offset="0.63" stop-color="#39d15d"/><stop offset="0.64" stop-color="#2ed262"/><stop offset="0.67" stop-color="#27d365"/><stop offset="0.74" stop-color="#25d366"/><stop offset="0.74" stop-color="#32c56b"/><stop offset="0.76" stop-color="#54a178"/><stop offset="0.77" stop-color="#728184"/><stop offset="0.79" stop-color="#8b658e"/><stop offset="0.81" stop-color="#a04f96"/><stop offset="0.83" stop-color="#b03e9c"/><stop offset="0.86" stop-color="#bb33a0"/><stop offset="0.89" stop-color="#c12ca2"/><stop offset="1" stop-color="#c32aa3"/></linearGradient></defs><rect class="cls-1" x="-2" y="-1" width="35" height="34"/><polygon class="cls-2" points="10.16 19.14 9.28 18.62 11.8 14.29 15.49 14.15 17.18 10.14 20.05 10.08 20.77 5.93 21.78 6.11 20.92 11.09 17.87 11.15 16.18 15.16 12.41 15.29 10.16 19.14"/><polygon class="cls-2" points="23.03 7.9 21.16 6.7 18.99 7.21 21.84 2.76 23.03 7.9"/><path class="cls-3" d="M3.39,15.66l3.82,1.67c.5.21.56.47.56.75a.63.63,0,0,1-.66.64,1.34,1.34,0,0,1-.65-.17L1.63,16.33a.74.74,0,0,1,0-1.35l4.83-2.22a1.47,1.47,0,0,1,.65-.17.63.63,0,0,1,.66.64c0,.28-.06.54-.56.75Z"/><path d="M8.9,11.28c0-.79.54-1,1.06-1h.57c.61,0,.89.24,1.09.89l1.7,5.49h0L15,11.2c.2-.65.48-.89,1.09-.89h.55c.52,0,1.05.18,1.05,1v6.94a.87.87,0,1,1-1.73,0V12.93h0L14.14,18.6a.79.79,0,0,1-.83.57.78.78,0,0,1-.83-.57l-1.82-5.67h0v5.29a.87.87,0,1,1-1.74,0Z"/><path class="cls-3" d="M21.6,10.75a.65.65,0,0,1,1.27.12,1.38,1.38,0,0,1-.09.39l-2.84,7.47a.64.64,0,0,1-1.27-.12,1.38,1.38,0,0,1,.09-.39Z"/><path class="cls-3" d="M27.62,15.66,23.8,14c-.5-.21-.56-.47-.56-.75a.62.62,0,0,1,.65-.64,1.41,1.41,0,0,1,.65.17L29.38,15a.74.74,0,0,1,0,1.35l-4.84,2.22a1.3,1.3,0,0,1-.65.17.62.62,0,0,1-.65-.64c0-.28.06-.54.56-.75Z"/><rect class="cls-4" x="1" y="19.46" width="29" height="0.63" rx="0.32"/></svg>