<?xml version="1.0" encoding="utf-8"?>
<!-- Generator: Adobe Illustrator 25.0.0, SVG Export Plug-In . SVG Version: 6.00 Build 0)  -->
<svg version="1.1" id="Layer_1" xmlns="http://www.w3.org/2000/svg" xmlns:xlink="http://www.w3.org/1999/xlink" x="0px" y="0px"
	 viewBox="0 0 32 32" style="enable-background:new 0 0 32 32;" xml:space="preserve">
<style type="text/css">
	.st0{fill:#FFFFFF;}
	.st1{fill:#25D366;}
	.st2{fill:#7232BD;}
	.st3{fill:url(#SVGID_1_);}
</style>
<rect class="st0" width="32" height="32"/>
<polygon class="st1" points="11.2,19.1 10.3,18.6 12.8,14.3 16.5,14.1 18.2,10.1 21,10.1 21.8,5.9 22.8,6.1 21.9,11.1 18.9,11.1 
	17.2,15.2 13.4,15.3 "/>
<polygon class="st1" points="24,7.9 22.2,6.7 20,7.2 22.8,2.8 "/>
<path class="st2" d="M3.7,15.9l4.3,1.5v1.7l-6.2-2.4v-1.7l6.2-2.4v1.7L3.7,15.9z"/>
<path d="M16.6,19v-2.9c0-0.4,0-0.7,0-1.1s0.1-0.7,0.1-1s0-0.4,0.1-0.5l0,0L15.3,19h-2.1l-1.5-5.5l0,0c0,0.1,0,0.2,0.1,0.5
	s0.1,0.6,0.1,1s0,0.8,0,1.1V19H9.5v-8.1h3.7l1.2,4.7l0,0l1.2-4.7h3.6V19H16.6z"/>
<path class="st2" d="M19.9,19.6l1.9-9.3h1.4l-1.9,9.3H19.9z"/>
<path class="st2" d="M30.3,16.8l-6.2,2.4v-1.7l4.3-1.6l-4.3-1.6v-1.7l6.2,2.4V16.8z"/>
<linearGradient id="SVGID_1_" gradientUnits="userSpaceOnUse" x1="2" y1="13.565" x2="30" y2="13.565" gradientTransform="matrix(1 0 0 -1 0 34)">
	<stop  offset="0.17" style="stop-color:#1877F2"/>
	<stop  offset="0.17" style="stop-color:#4261C6"/>
	<stop  offset="0.18" style="stop-color:#694D9D"/>
	<stop  offset="0.19" style="stop-color:#8D3B77"/>
	<stop  offset="0.2" style="stop-color:#AC2B57"/>
	<stop  offset="0.21" style="stop-color:#C61D3B"/>
	<stop  offset="0.22" style="stop-color:#DB1225"/>
	<stop  offset="0.24" style="stop-color:#EB0A14"/>
	<stop  offset="0.26" style="stop-color:#F70409"/>
	<stop  offset="0.28" style="stop-color:#FD0102"/>
	<stop  offset="0.35" style="stop-color:#FF0000"/>
	<stop  offset="0.35" style="stop-color:#FF0100"/>
	<stop  offset="0.38" style="stop-color:#FE3201"/>
	<stop  offset="0.41" style="stop-color:#FD5D02"/>
	<stop  offset="0.44" style="stop-color:#FC7F03"/>
	<stop  offset="0.47" style="stop-color:#FC9A04"/>
	<stop  offset="0.5" style="stop-color:#FBAD05"/>
	<stop  offset="0.53" style="stop-color:#FBB805"/>
	<stop  offset="0.56" style="stop-color:#FBBC05"/>
	<stop  offset="0.56" style="stop-color:#EBBE0C"/>
	<stop  offset="0.57" style="stop-color:#C2C21F"/>
	<stop  offset="0.58" style="stop-color:#9CC630"/>
	<stop  offset="0.59" style="stop-color:#7CCA3F"/>
	<stop  offset="0.6" style="stop-color:#60CD4B"/>
	<stop  offset="0.61" style="stop-color:#4ACF55"/>
	<stop  offset="0.63" style="stop-color:#39D15D"/>
	<stop  offset="0.64" style="stop-color:#2ED262"/>
	<stop  offset="0.67" style="stop-color:#27D365"/>
	<stop  offset="0.74" style="stop-color:#25D366"/>
	<stop  offset="0.74" style="stop-color:#32C56B"/>
	<stop  offset="0.76" style="stop-color:#54A178"/>
	<stop  offset="0.77" style="stop-color:#728184"/>
	<stop  offset="0.79" style="stop-color:#8B658E"/>
	<stop  offset="0.81" style="stop-color:#A04F96"/>
	<stop  offset="0.83" style="stop-color:#B03E9C"/>
	<stop  offset="0.86" style="stop-color:#BB33A0"/>
	<stop  offset="0.89" style="stop-color:#C12CA2"/>
	<stop  offset="1" style="stop-color:#C32AA3"/>
</linearGradient>
<rect x="2" y="20" class="st3" width="28" height="0.8"/>
</svg>
