<svg id="Layer_1" data-name="Layer 1" xmlns="http://www.w3.org/2000/svg" viewBox="0 0 200 200"><defs><style>.cls-1{fill:#fcdc02;}.cls-2{fill:none;stroke:#fcdc02;stroke-miterlimit:10;}.cls-3{fill:#fcfafb;}</style></defs><path class="cls-1" d="M135,134,100.5,63v60.67a4.58,4.58,0,1,1-2,0V63.07L64,134.05c14,6.6,23.77,34.35,21.44,44H113C110.7,168.4,120.48,140.65,135,134Z"/><rect class="cls-1" x="64.28" y="178.1" width="70.44" height="15.68"/><circle class="cls-1" cx="34.91" cy="26.56" r="4.59"/><circle class="cls-1" cx="164.54" cy="96.19" r="4.59"/><rect class="cls-1" x="5.94" y="96.87" width="18.63" height="18.63"/><rect class="cls-1" x="173.43" y="6.21" width="20.63" height="20.63"/><line class="cls-2" x1="34.46" y1="26.56" x2="164.54" y2="96.58"/><polygon class="cls-3" points="98.5 61.57 99.8 61.57 99.53 61.59 99.5 61.59 99.21 61.61 99 62.04 98.5 63.07 98.5 61.57"/><polygon class="cls-3" points="100.5 61.57 100.5 63.01 100 61.98 99.91 61.79 99.8 61.57 100.5 61.57"/><path class="cls-2" d="M15.47,99c-3.72-38.4,42.05-37,86-37.19,40.78,4.74,66-10,82.32-35.62"/></svg>