<?xml version="1.0" encoding="UTF-8"?>
<svg id="Layer_1" data-name="Layer 1" xmlns="http://www.w3.org/2000/svg" viewBox="0 0 1126.15 138.54">
  <defs>
    <style>
      .cls-1 {
        fill: #fff;
      }

      .cls-1, .cls-2 {
        stroke-width: 0px;
      }

      .cls-2 {
        fill: #7232bd;
      }
    </style>
  </defs>
  <path class="cls-2" d="M33.99,83.42l59.17,25.91c7.71,3.31,8.63,7.35,8.63,11.57,0,5.88-4.22,9.93-10.1,9.93-3.53-.02-7-.91-10.11-2.58L6.8,93.89c-2.02-.9-3.74-2.37-4.95-4.23-1.21-1.86-1.85-4.03-1.85-6.24s.64-4.38,1.85-6.24c1.21-1.86,2.93-3.33,4.95-4.23l74.78-34.36c3.11-1.67,6.58-2.55,10.11-2.58,5.88,0,10.1,4,10.1,9.93,0,4.22-.92,8.26-8.63,11.57l-59.17,25.91Z"/>
  <path class="cls-1" d="M119.43,15.62c0-12.13,8.27-14.89,16.35-14.89h8.82c9.37,0,13.78,3.68,16.91,13.79l26.27,84.89h.37l25.91-84.88c3.12-10.11,7.53-13.79,16.9-13.79h8.45c8.09,0,16.36,2.76,16.36,14.89v107.48c0,7.53-3.68,14.7-13.42,14.7s-13.41-7.17-13.41-14.7V41.11h-.37l-28.11,87.83c-2,6.25-6.62,8.82-12.86,8.82s-10.84-2.57-12.86-8.82l-28.12-87.83h-.37v82c0,7.53-3.67,14.7-13.41,14.7s-13.41-7.17-13.41-14.7V15.62Z"/>
  <path class="cls-1" d="M370.79,124.4c0,8.08-3.68,13.41-12.13,13.41s-12.13-5.33-12.13-13.41v-3.5h-.37c-7.53,9.93-17.27,16.91-32.52,16.91-16.17,0-33.81-8.09-33.81-35.28v-52.18c0-7.17,2.94-13.42,13.41-13.42s13.42,6.25,13.42,13.42v46.85c0,10.84,5.33,18.56,16.9,18.56,5.5-.12,10.73-2.4,14.56-6.36,3.82-3.96,5.92-9.27,5.84-14.77v-44.28c0-7.17,2.94-13.42,13.41-13.42s13.42,6.25,13.42,13.42v74.05Z"/>
  <path class="cls-1" d="M428.11,36.93c20.4,0,41,8.09,41,20.4,0,6.25-4.22,11.76-11.2,11.76-10.48,0-10.84-12.31-27.75-12.31-9.37,0-15.43,2.57-15.43,8.27,0,6.24,6.06,7.71,14.33,9.55l11.21,2.57c15.25,3.49,33.44,9.93,33.44,28.67,0,21.86-21.13,32-41.34,32-24.26,0-44.47-10.84-44.47-24.07,0-5.88,3.31-11.21,10.84-11.21,11.58,0,12.68,16.54,32.52,16.54,9.56,0,15.62-4.23,15.62-9.74,0-6.8-5.88-7.9-15.43-10.29l-15.81-3.86c-15.61-3.86-27.74-10.29-27.74-28.3-.03-21.89,21.65-29.98,40.21-29.98Z"/>
  <path class="cls-1" d="M505.64,0c2.77,0,5.48.82,7.78,2.36,2.3,1.54,4.1,3.72,5.16,6.28,1.06,2.56,1.34,5.37.8,8.09-.54,2.72-1.87,5.21-3.83,7.17-1.96,1.96-4.45,3.29-7.17,3.83-2.71.54-5.53.26-8.09-.8-2.56-1.06-4.74-2.85-6.28-5.16-1.54-2.3-2.36-5.01-2.36-7.78,0-3.71,1.48-7.27,4.1-9.9,2.62-2.62,6.19-4.1,9.9-4.1ZM492.23,50.35c0-7.17,2.94-13.42,13.41-13.42s13.42,6.25,13.42,13.42v74.05c0,7.16-2.94,13.41-13.42,13.41s-13.41-6.25-13.41-13.41V50.35Z"/>
  <path class="cls-1" d="M577.49,28.53h-28.48c-8.66,0-15.66-4.46-15.66-12.73s7-12.68,15.62-12.68h87.09c8.64,0,15.62,4.41,15.62,12.68s-7,12.68-15.62,12.68h-28.44v94.26c0,9-5.88,15.07-15.06,15.07s-15.07-6.06-15.07-15.07V28.53Z"/>
  <path class="cls-1" d="M662.19,92.42c0,14.15,9.19,24.44,24.81,24.44,20.21,0,20.21-13.23,31.05-13.23,6.43,0,11,5.51,11,10.48,0,16.17-25.91,23.7-42.08,23.7-37.48,0-51.63-25.36-51.63-48.69,0-31.24,18.92-52.19,50.71-52.19s48.51,21.87,48.51,43.92c0,9.19-2.76,11.57-11.76,11.57h-60.61ZM709.19,76.99c-1.47-12.31-10.66-21.32-22.6-21.32-13.41,0-21.5,8.27-24.44,21.32h47.04Z"/>
  <path class="cls-1" d="M797.06,36.93c22.42,0,39.14,12.68,39.14,25.18,0,7.71-5.7,11.57-12.5,11.57-12.68,0-8.08-15.8-27.38-15.8-10.47,0-22.78,7.17-22.78,31.42,0,16.72,7.9,27.56,22.6,27.56,18.74,0,14.7-17.27,28.85-17.27,6.8,0,11.21,5,11.21,10.29,0,11.76-13.23,27.93-40.79,27.93-33.08,0-48.7-20.4-48.7-48.51,0-30.87,17.46-52.37,50.35-52.37Z"/>
  <path class="cls-1" d="M850.52,14.15c0-8.82,5.33-13.42,13.42-13.42s13.41,4.6,13.41,13.42v36.93h.37c5.33-7,14.7-14.15,30-14.15,16.17,0,33.81,8.09,33.81,35.28v52.19c0,7.16-2.94,13.41-13.41,13.41s-13.47-6.28-13.47-13.41v-46.87c0-10.84-5.33-18.56-16.9-18.56-5.5.12-10.74,2.4-14.56,6.36-3.82,3.96-5.92,9.27-5.84,14.78v44.29c0,7.16-2.94,13.41-13.41,13.41s-13.42-6.25-13.42-13.41V14.15Z"/>
  <path class="cls-2" d="M998.99,7.53c1.1-2.94,2.94-7.53,10.1-7.53,4.23,0,9.56,3.49,9.56,9.37-.14,2.09-.64,4.14-1.47,6.06l-43.92,115.58c-1.1,2.94-2.94,7.53-10.1,7.53-4.23,0-9.56-3.49-9.56-9.37.14-2.09.64-4.14,1.47-6.06l43.92-115.58Z"/>
  <path class="cls-2" d="M1092.14,83.42l-59.16-25.89c-7.72-3.31-8.64-7.35-8.64-11.57,0-5.88,4.23-9.93,10.11-9.93,3.53.03,6.99.91,10.1,2.58l74.8,34.34c2.02.9,3.74,2.37,4.95,4.23,1.21,1.86,1.85,4.03,1.85,6.24s-.64,4.38-1.85,6.24c-1.21,1.86-2.93,3.33-4.95,4.23l-74.79,34.36c-3.11,1.67-6.57,2.55-10.1,2.58-5.88,0-10.11-4-10.11-9.93,0-4.22.92-8.26,8.64-11.57l59.15-25.91Z"/>
</svg>