<svg id="Layer_1" data-name="Layer 1" xmlns="http://www.w3.org/2000/svg" xmlns:xlink="http://www.w3.org/1999/xlink" viewBox="0 0 1135.78 351.09"><defs><style>.cls-1{fill:none;stroke:#25d366;stroke-miterlimit:10;stroke-width:22px;}.cls-2{fill:#25d366;}.cls-3{fill:url(#linear-gradient);}.cls-4{fill:#7232bd;}</style><linearGradient id="linear-gradient" y1="338.61" x2="1135.78" y2="338.61" gradientUnits="userSpaceOnUse"><stop offset="0.17" stop-color="#1877f2"/><stop offset="0.17" stop-color="#4261c6"/><stop offset="0.18" stop-color="#694d9d"/><stop offset="0.19" stop-color="#8d3b77"/><stop offset="0.2" stop-color="#ac2b57"/><stop offset="0.21" stop-color="#c61d3b"/><stop offset="0.22" stop-color="#db1225"/><stop offset="0.24" stop-color="#eb0a14"/><stop offset="0.26" stop-color="#f70409"/><stop offset="0.28" stop-color="#fd0102"/><stop offset="0.35" stop-color="red"/><stop offset="0.35" stop-color="#ff0100"/><stop offset="0.38" stop-color="#fe3201"/><stop offset="0.41" stop-color="#fd5d02"/><stop offset="0.44" stop-color="#fc7f03"/><stop offset="0.47" stop-color="#fc9a04"/><stop offset="0.5" stop-color="#fbad05"/><stop offset="0.53" stop-color="#fbb805"/><stop offset="0.56" stop-color="#fbbc05"/><stop offset="0.56" stop-color="#ebbe0c"/><stop offset="0.57" stop-color="#c2c21f"/><stop offset="0.58" stop-color="#9cc630"/><stop offset="0.59" stop-color="#7cca3f"/><stop offset="0.6" stop-color="#60cd4b"/><stop offset="0.61" stop-color="#4acf55"/><stop offset="0.63" stop-color="#39d15d"/><stop offset="0.64" stop-color="#2ed262"/><stop offset="0.67" stop-color="#27d365"/><stop offset="0.74" stop-color="#25d366"/><stop offset="0.74" stop-color="#32c56b"/><stop offset="0.76" stop-color="#54a178"/><stop offset="0.77" stop-color="#728184"/><stop offset="0.79" stop-color="#8b658e"/><stop offset="0.81" stop-color="#a04f96"/><stop offset="0.83" stop-color="#b03e9c"/><stop offset="0.86" stop-color="#bb33a0"/><stop offset="0.89" stop-color="#c12ca2"/><stop offset="1" stop-color="#c32aa3"/></linearGradient></defs><polyline class="cls-1" points="504.31 306.61 589.55 221.25 682.25 242.1 749.98 154.32 823.3 171.98 872.32 64.52"/><polygon class="cls-2" points="898.5 113.14 866.23 77.88 818.45 76.62 901.75 0 898.5 113.14"/><rect class="cls-3" y="326.14" width="1135.78" height="24.95" rx="12.47"/><path class="cls-4" d="M69.64,535.89l59.17,25.91c7.71,3.31,8.63,7.35,8.63,11.57,0,5.88-4.22,9.93-10.1,9.93a21.69,21.69,0,0,1-10.11-2.58L42.45,546.36a11.46,11.46,0,0,1,0-20.94l74.78-34.36a21.69,21.69,0,0,1,10.11-2.58c5.88,0,10.1,4,10.1,9.93,0,4.22-.92,8.26-8.63,11.57Z" transform="translate(-32.8 -273.5)"/><path d="M155.08,468.09c0-12.13,8.27-14.89,16.35-14.89h8.82c9.37,0,13.78,3.68,16.91,13.79l26.27,84.89h.37L249.71,467c3.12-10.11,7.53-13.79,16.9-13.79h8.45c8.09,0,16.36,2.76,16.36,14.89V575.58c0,7.53-3.68,14.7-13.42,14.7s-13.41-7.17-13.41-14.7v-82h-.37l-28.11,87.83c-2,6.25-6.62,8.82-12.86,8.82s-10.84-2.57-12.86-8.82l-28.12-87.83h-.37v82c0,7.53-3.67,14.7-13.41,14.7s-13.41-7.17-13.41-14.7Z" transform="translate(-32.8 -273.5)"/><path d="M406.44,576.87c0,8.08-3.68,13.41-12.13,13.41s-12.13-5.33-12.13-13.41v-3.5h-.37c-7.53,9.93-17.27,16.91-32.52,16.91-16.17,0-33.81-8.09-33.81-35.28V502.82c0-7.17,2.94-13.42,13.41-13.42s13.42,6.25,13.42,13.42v46.85c0,10.84,5.33,18.56,16.9,18.56a20.84,20.84,0,0,0,20.4-21.13V502.82c0-7.17,2.94-13.42,13.41-13.42s13.42,6.25,13.42,13.42Z" transform="translate(-32.8 -273.5)"/><path d="M463.76,489.4c20.4,0,41,8.09,41,20.4,0,6.25-4.22,11.76-11.2,11.76-10.48,0-10.84-12.31-27.75-12.31-9.37,0-15.43,2.57-15.43,8.27,0,6.24,6.06,7.71,14.33,9.55l11.21,2.57c15.25,3.49,33.44,9.93,33.44,28.67,0,21.86-21.13,32-41.34,32-24.26,0-44.47-10.84-44.47-24.07,0-5.88,3.31-11.21,10.84-11.21,11.58,0,12.68,16.54,32.52,16.54,9.56,0,15.62-4.23,15.62-9.74,0-6.8-5.88-7.9-15.43-10.29l-15.81-3.86c-15.61-3.86-27.74-10.29-27.74-28.3C423.52,497.49,445.2,489.4,463.76,489.4Z" transform="translate(-32.8 -273.5)"/><path d="M541.29,452.47a14,14,0,1,1-14,14A14,14,0,0,1,541.29,452.47Zm-13.41,50.35c0-7.17,2.94-13.42,13.41-13.42s13.42,6.25,13.42,13.42v74.05c0,7.16-2.94,13.41-13.42,13.41s-13.41-6.25-13.41-13.41Z" transform="translate(-32.8 -273.5)"/><path d="M613.14,481H584.66C576,481,569,476.54,569,468.27s7-12.68,15.62-12.68h87.09c8.64,0,15.62,4.41,15.62,12.68s-7,12.68-15.62,12.68H643.27v94.26c0,9-5.88,15.07-15.06,15.07s-15.07-6.06-15.07-15.07Z" transform="translate(-32.8 -273.5)"/><path d="M697.84,544.89c0,14.15,9.19,24.44,24.81,24.44,20.21,0,20.21-13.23,31.05-13.23,6.43,0,11,5.51,11,10.48,0,16.17-25.91,23.7-42.08,23.7-37.48,0-51.63-25.36-51.63-48.69,0-31.24,18.92-52.19,50.71-52.19,30.87,0,48.51,21.87,48.51,43.92,0,9.19-2.76,11.57-11.76,11.57Zm47-15.43c-1.47-12.31-10.66-21.32-22.6-21.32-13.41,0-21.5,8.27-24.44,21.32Z" transform="translate(-32.8 -273.5)"/><path d="M832.71,489.4c22.42,0,39.14,12.68,39.14,25.18,0,7.71-5.7,11.57-12.5,11.57-12.68,0-8.08-15.8-27.38-15.8-10.47,0-22.78,7.17-22.78,31.42,0,16.72,7.9,27.56,22.6,27.56,18.74,0,14.7-17.27,28.85-17.27,6.8,0,11.21,5,11.21,10.29,0,11.76-13.23,27.93-40.79,27.93-33.08,0-48.7-20.4-48.7-48.51C782.36,510.9,799.82,489.4,832.71,489.4Z" transform="translate(-32.8 -273.5)"/><path d="M886.17,466.62c0-8.82,5.33-13.42,13.42-13.42S913,457.8,913,466.62v36.93h.37c5.33-7,14.7-14.15,30-14.15,16.17,0,33.81,8.09,33.81,35.28v52.19c0,7.16-2.94,13.41-13.41,13.41S950.3,584,950.3,576.87V530c0-10.84-5.33-18.56-16.9-18.56A20.84,20.84,0,0,0,913,532.58v44.29c0,7.16-2.94,13.41-13.41,13.41s-13.42-6.25-13.42-13.41Z" transform="translate(-32.8 -273.5)"/><path class="cls-4" d="M1034.64,460c1.1-2.94,2.94-7.53,10.1-7.53,4.23,0,9.56,3.49,9.56,9.37a18.4,18.4,0,0,1-1.47,6.06l-43.92,115.58c-1.1,2.94-2.94,7.53-10.1,7.53-4.23,0-9.56-3.49-9.56-9.37a18.4,18.4,0,0,1,1.47-6.06Z" transform="translate(-32.8 -273.5)"/><path class="cls-4" d="M1127.79,535.89,1068.63,510c-7.72-3.31-8.64-7.35-8.64-11.57,0-5.88,4.23-9.93,10.11-9.93a21.68,21.68,0,0,1,10.1,2.58L1155,525.42a11.46,11.46,0,0,1,0,20.94l-74.79,34.36a21.68,21.68,0,0,1-10.1,2.58c-5.88,0-10.11-4-10.11-9.93,0-4.22.92-8.26,8.64-11.57Z" transform="translate(-32.8 -273.5)"/></svg>