<svg id="Layer_1" data-name="Layer 1" xmlns="http://www.w3.org/2000/svg" xmlns:xlink="http://www.w3.org/1999/xlink" viewBox="0 0 1037.46 324.73"><defs><style>.cls-1{fill:none;stroke:#25d366;stroke-miterlimit:10;stroke-width:22px;}.cls-2{fill:#25d366;}.cls-3{fill:url(#linear-gradient);}.cls-4{fill:#7232bd;}</style><linearGradient id="linear-gradient" x1="3.46" y1="311.73" x2="1037.46" y2="311.73" gradientUnits="userSpaceOnUse"><stop offset="0.17" stop-color="#1877f2"/><stop offset="0.17" stop-color="#4261c6"/><stop offset="0.18" stop-color="#694d9d"/><stop offset="0.19" stop-color="#8d3b77"/><stop offset="0.2" stop-color="#ac2b57"/><stop offset="0.21" stop-color="#c61d3b"/><stop offset="0.22" stop-color="#db1225"/><stop offset="0.24" stop-color="#eb0a14"/><stop offset="0.26" stop-color="#f70409"/><stop offset="0.28" stop-color="#fd0102"/><stop offset="0.35" stop-color="red"/><stop offset="0.35" stop-color="#ff0100"/><stop offset="0.38" stop-color="#fe3201"/><stop offset="0.41" stop-color="#fd5d02"/><stop offset="0.44" stop-color="#fc7f03"/><stop offset="0.47" stop-color="#fc9a04"/><stop offset="0.5" stop-color="#fbad05"/><stop offset="0.53" stop-color="#fbb805"/><stop offset="0.56" stop-color="#fbbc05"/><stop offset="0.56" stop-color="#ebbe0c"/><stop offset="0.57" stop-color="#c2c21f"/><stop offset="0.58" stop-color="#9cc630"/><stop offset="0.59" stop-color="#7cca3f"/><stop offset="0.6" stop-color="#60cd4b"/><stop offset="0.61" stop-color="#4acf55"/><stop offset="0.63" stop-color="#39d15d"/><stop offset="0.64" stop-color="#2ed262"/><stop offset="0.67" stop-color="#27d365"/><stop offset="0.74" stop-color="#25d366"/><stop offset="0.74" stop-color="#32c56b"/><stop offset="0.76" stop-color="#54a178"/><stop offset="0.77" stop-color="#728184"/><stop offset="0.79" stop-color="#8b658e"/><stop offset="0.81" stop-color="#a04f96"/><stop offset="0.83" stop-color="#b03e9c"/><stop offset="0.86" stop-color="#bb33a0"/><stop offset="0.89" stop-color="#c12ca2"/><stop offset="1" stop-color="#c32aa3"/></linearGradient></defs><polyline class="cls-1" points="464.94 268.29 536.69 196.44 614.71 214 671.73 140.11 733.44 154.97 774.7 64.52"/><polygon class="cls-2" points="800.87 113.14 768.61 77.88 720.82 76.62 804.13 0 800.87 113.14"/><rect class="cls-3" x="3.46" y="298.73" width="1034" height="26"/><path class="cls-4" d="M107.22,562.9l55.52,20.26v22l-81.2-31.24V551.77l81.2-31.4v22.12Z" transform="translate(-81.54 -327.27)"/><path d="M276.1,603.11V564.76q0-7.11.54-14.62t1.16-12.6q.61-5.1.77-6.5H278l-19.65,72.07H231.56l-19.8-71.91h-.62c.11.93.39,3.07.86,6.42s.9,7.52,1.31,12.52.62,9.88.62,14.62v38.35h-31.4V496.71h48.26l16.08,61.4h.62l15.93-61.4H310v106.4Z" transform="translate(-81.54 -327.27)"/><path d="M387.76,603.11l-2-12.37a33,33,0,0,1-12.61,10.44A37.17,37.17,0,0,1,356.67,605q-14.22,0-21.34-7.89t-7.11-22.73v-52.9H359v49.19a12.49,12.49,0,0,0,2.71,8.42,9.48,9.48,0,0,0,7.66,3.17,12.23,12.23,0,0,0,9.27-3.71,12.63,12.63,0,0,0,3.56-9.12V521.45H413v81.66Z" transform="translate(-81.54 -327.27)"/><path d="M498.26,526q11.37,6.42,11.37,19.87H481a6.47,6.47,0,0,0-4-6.34,14.22,14.22,0,0,0-7-1.55q-11.15,0-11.14,5.26,0,2.94,3.87,4.18a95.6,95.6,0,0,0,12.68,2.63,137.51,137.51,0,0,1,18.09,3.63,29.39,29.39,0,0,1,12.69,7.42q5.4,5.34,5.41,14.93,0,15.62-11.68,22.27T469.42,605A67.69,67.69,0,0,1,449,602a35.92,35.92,0,0,1-15.62-9.35q-6-6.35-6-16.09H456v.62q.15,5.26,4.41,7.35a20.26,20.26,0,0,0,9.05,2.08q12.82,0,12.83-6,0-3.09-4-4.48a90.61,90.61,0,0,0-13.14-2.94,146.15,146.15,0,0,1-18-4,29.69,29.69,0,0,1-12.3-7.35q-5.25-5.18-5.25-14.46,0-15,11.36-21.34t29.62-6.34Q486.9,519.6,498.26,526Z" transform="translate(-81.54 -327.27)"/><path d="M527.26,511.87V491H558v20.88Zm0,91.24V521.45H558v81.66Z" transform="translate(-81.54 -327.27)"/><path d="M641.08,523.93v79.18H606.9V523.93H572V496.71H675.88v27.22Z" transform="translate(-81.54 -327.27)"/><path d="M756.53,530.12q11.84,10.51,11.83,32.16v5.26H707.12q0,8.82,3.94,13.3t12.45,4.49q7.74,0,11.37-3.25a11.05,11.05,0,0,0,3.63-8.66h29.85q0,14.85-11.29,23.2T724.13,605q-22.73,0-35.26-10.59t-12.53-32.1q0-21,12.22-31.86t33.72-10.82Q744.69,519.6,756.53,530.12ZM707.27,553h30q0-6.33-3.64-10t-10.13-3.71Q709,539.24,707.27,553Z" transform="translate(-81.54 -327.27)"/><path d="M858,528.18q12.45,8.58,12.45,26.22H840.59q0-13.92-15.16-13.92T810.28,558v8.82q0,17.33,15.77,17.32t15.78-14.23h28.61q0,17.79-12.45,26.45T825.43,605q-21.49,0-33.71-10.83T779.5,562.28q0-21,12.22-31.86t33.71-10.82Q845.53,519.6,858,528.18Z" transform="translate(-81.54 -327.27)"/><path d="M926.11,522.31A36.45,36.45,0,0,1,940,519.6q14.24,0,21.34,7.89t7.12,22.73v52.89H937.71V553.93A12.54,12.54,0,0,0,935,545.5a9.51,9.51,0,0,0-7.65-3.17,12.28,12.28,0,0,0-9.28,3.71,12.71,12.71,0,0,0-3.56,9.13v47.94H883.74V491h30.77v39A34.69,34.69,0,0,1,926.11,522.31Z" transform="translate(-81.54 -327.27)"/><path class="cls-4" d="M977.3,610.54l24.75-121.25h18.71L996.17,610.54Z" transform="translate(-81.54 -327.27)"/><path class="cls-4" d="M1112.32,573.88l-81.2,31.24v-22l55.52-20.26-55.52-20.41V520.37l81.2,31.4Z" transform="translate(-81.54 -327.27)"/></svg>