<svg id="Layer_1" data-name="Layer 1" xmlns="http://www.w3.org/2000/svg" viewBox="0 0 200 200"><defs><style>.cls-1{fill:#0d88ff;}.cls-2,.cls-4{fill:none;}.cls-2{stroke:#f0f1f2;}.cls-2,.cls-3,.cls-4{stroke-miterlimit:10;}.cls-3{fill:#fafbfc;stroke:#0d88ff;}.cls-4{stroke:#fafbfc;stroke-width:3px;}.cls-5{fill:#f7fafc;}</style></defs><path class="cls-1" d="M127.75,106.06c43,21,65.15,51.22,59.31,93.94h-174c-5.85-42.72,16.28-73,59.3-93.94v-21h55.4Z"/><circle class="cls-1" cx="100" cy="68.21" r="44.87"/><path class="cls-2" d="M143.31,80q-24.54,13.65-49.09,9.1"/><circle class="cls-3" cx="96.73" cy="89.14" r="5.98"/><path class="cls-4" d="M42.19,76.09c1.13-95.61,116.75-93.53,115.62,0"/><path class="cls-5" d="M148.13,67.7c11-4.89,14.69,16.33,0,24.5"/><path class="cls-5" d="M51.88,67.7c-11-4.89-14.69,16.33,0,24.5"/><rect class="cls-5" x="54.86" y="142.53" width="93" height="57.47"/><circle class="cls-1" cx="101.35" cy="174.07" r="11.18"/></svg>