<svg id="Layer_1" data-name="Layer 1" xmlns="http://www.w3.org/2000/svg" viewBox="0 0 200 200"><defs><style>.cls-1{fill:#6c3da4;}</style></defs><path class="cls-1" d="M16.22,181.61H14.48V67.12C21,34.65,38.68,16.74,67.18,13.7H185.52v1.74H67.28c-28,3-44.7,19.94-51.08,51.85Z"/><path class="cls-1" d="M71,177.48C56.65,176,47.66,167.05,44.22,150.82l0-.18V71.5c.7-13.85,9.4-22.91,26.59-27.74l.24,0h73.2c16.65-.13,27.3,7.69,31.49,23.16l0,.23v77c1.59,8.9,0,16.43-4.8,22.24-5.71,7-15.86,10.91-28.58,11.16Zm-25.1-26.93c3.33,15.56,11.57,23.8,25.19,25.19h71.23c12.19-.24,21.88-4,27.26-10.52,4.44-5.4,5.93-12.46,4.42-21v-77c-4-14.75-13.8-21.82-29.79-21.77H71.15C54.84,50.07,46.59,58.6,45.93,71.54Z"/><circle class="cls-1" cx="83.87" cy="140.06" r="21.6"/><circle class="cls-1" cx="83.87" cy="80.92" r="21.6"/><circle class="cls-1" cx="136.81" cy="110.6" r="21.6"/><circle class="cls-1" cx="136.81" cy="153.75" r="8.52"/><circle class="cls-1" cx="136.81" cy="67.46" r="8.52"/></svg>