<svg id="Layer_1" data-name="Layer 1" xmlns="http://www.w3.org/2000/svg" viewBox="0 0 200 200"><defs><style>.cls-1{fill:#0cd68a;}</style></defs><path class="cls-1" d="M70,100.06a30,30,0,1,1,30,29.92A30,30,0,0,1,70,100.06Zm-16.2,0a46.19,46.19,0,1,0,46.1-46.28,46.19,46.19,0,0,0-46.1,46.28Zm83.32-48.18A10.8,10.8,0,1,0,147.9,41.1,10.79,10.79,0,0,0,137.13,51.91ZM63.79,173.29c-8.77-.38-13.53-1.84-16.7-3.06a29.79,29.79,0,0,1-17.11-17c-1.23-3.18-2.72-7.93-3.13-16.7-.45-9.49-.55-12.33-.59-36.35s0-26.86.45-36.35c.38-8.76,1.85-13.53,3.06-16.7a28,28,0,0,1,6.71-10.36A27.87,27.87,0,0,1,46.82,30c3.17-1.24,7.92-2.71,16.69-3.13,9.49-.45,12.33-.54,36.35-.59s26.86,0,36.35.45c8.77.39,13.53,1.84,16.7,3.06a27.89,27.89,0,0,1,10.36,6.71A27.91,27.91,0,0,1,170,46.82c1.24,3.16,2.71,7.93,3.13,16.69.45,9.49.55,12.33.59,36.35s0,26.86-.45,36.35c-.39,8.77-1.84,13.53-3.06,16.71a29.79,29.79,0,0,1-17,17.1c-3.17,1.24-7.93,2.71-16.69,3.13-9.49.45-12.33.55-36.35.59s-26.86,0-36.35-.45Zm-1-162.63c-9.57.45-16.11,2-21.82,4.23A43.85,43.85,0,0,0,25,25.29a44,44,0,0,0-10.35,16C12.44,47,10.94,53.51,10.52,63.09s-.52,12.65-.47,37.08.16,27.49.61,37.09,2,16.11,4.23,21.82A43.89,43.89,0,0,0,25.29,175a44.06,44.06,0,0,0,16,10.34c5.72,2.21,12.26,3.72,21.84,4.14s12.66.52,37.08.47,27.5-.16,37.09-.61,16.1-2,21.82-4.22a46,46,0,0,0,26.26-26.36c2.21-5.73,3.72-12.27,4.14-21.84s.52-12.67.47-37.09-.16-27.49-.61-37.08-2-16.11-4.23-21.83a45.93,45.93,0,0,0-26.35-26.26c-5.73-2.21-12.27-3.72-21.84-4.14s-12.66-.52-37.09-.47-27.49.15-37.09.61Z"/></svg>