<svg id="Layer_1" data-name="Layer 1" xmlns="http://www.w3.org/2000/svg" viewBox="0 0 200 200"><defs><style>.cls-1{fill:#fcdc02;}</style></defs><path class="cls-1" d="M157.37,11.09H28.46A19.9,19.9,0,0,0,8.61,30.93V159.85a19.9,19.9,0,0,0,19.85,19.84H157.37a19.9,19.9,0,0,0,19.84-19.84V30.93A19.9,19.9,0,0,0,157.37,11.09ZM33.66,169.93H17.84V154.1H33.66Zm0-26.74H17.84V127.37H33.66Zm0-26.74H17.84V100.63H33.66Zm0-26.73H17.84V73.89H33.66Zm0-26.74H17.84V47.16H33.66Zm0-26.74H17.84V20.42H33.66Zm102.57,92.28A10.23,10.23,0,0,1,126,138.71H59.79a10.23,10.23,0,0,1-10.2-10.19V62.26a10.23,10.23,0,0,1,10.2-10.19H126a10.23,10.23,0,0,1,10.19,10.19Zm31.12,41.62H151.52V154.32h15.83Zm0-26.73H151.52V127.58h15.83Zm0-26.74H151.52V100.85h15.83Zm0-26.74H151.52V74.11h15.83Zm0-26.73H151.52V47.37h15.83Zm0-26.74H151.52V20.64h15.83Z"/><path class="cls-1" d="M80.21,95.39V83.17a5.41,5.41,0,0,1,8.12-4.68l10.58,6.1,10.58,6.11a5.42,5.42,0,0,1,0,9.38l-10.58,6.11L88.33,112.3a5.42,5.42,0,0,1-8.12-4.69Z"/><rect class="cls-1" x="150.58" y="101.12" width="13.42" height="89.2" transform="matrix(0.85, 0.52, -0.52, 0.85, 99.49, -60.76)"/><path class="cls-1" d="M179.74,97.22h8.45a2.48,2.48,0,0,1,2.48,2.48v7.62a0,0,0,0,1,0,0H177.26a0,0,0,0,1,0,0V99.7A2.48,2.48,0,0,1,179.74,97.22Z" transform="translate(80.7 -81.14) rotate(31.55)"/><polygon class="cls-1" points="133.25 184.87 138.69 188.21 133.08 191.24 127.48 194.28 127.65 187.91 127.82 181.54 133.25 184.87"/></svg>