<svg id="Layer_1" data-name="Layer 1" xmlns="http://www.w3.org/2000/svg" viewBox="0 0 187.29 160.53"><defs><style>.cls-1{fill:#1ee2cf;}</style></defs><path class="cls-1" d="M180.27,16.16H19.73A13.36,13.36,0,0,0,6.36,29.53V109.8a13.37,13.37,0,0,0,13.37,13.38H180.27a13.37,13.37,0,0,0,13.37-13.38V29.53A13.36,13.36,0,0,0,180.27,16.16Zm0,93.64H19.73V29.53H180.27Z" transform="translate(-6.36 -16.16)"/><rect class="cls-1" x="134.7" y="53.51" width="40.13" height="92.2"/><path class="cls-1" d="M26.42,36.22v66.89H173.58V36.22ZM61.55,62.46,49.21,68.15a14.6,14.6,0,0,1-1.68.66,10,10,0,0,1-1.29.37,11.78,11.78,0,0,1,1.32.34,12.19,12.19,0,0,1,1.65.63l12.34,5.7v5l-19-9V66.54l19-9ZM72.82,87.89H67.29l14.88-40H87.7Zm39.67-16-19,9V75.94l12.33-5.7a14,14,0,0,1,1.68-.64c.56-.17,1-.3,1.3-.38-.31-.06-.75-.16-1.32-.32a10.07,10.07,0,0,1-1.66-.62L93.44,62.54v-5l19,9Z" transform="translate(-6.36 -16.16)"/><path class="cls-1" d="M187,56.29H133.44A6.68,6.68,0,0,0,126.76,63V170a6.69,6.69,0,0,0,6.68,6.69H187a6.69,6.69,0,0,0,6.68-6.69V63A6.68,6.68,0,0,0,187,56.29ZM187,170H133.44V63H187Z" transform="translate(-6.36 -16.16)"/></svg>